<mxfile host="Electron" agent="Mozilla/5.0 (Macintosh; Intel Mac OS X 10_15_7) AppleWebKit/537.36 (KHTML, like Gecko) draw.io/24.7.5 Chrome/126.0.6478.183 Electron/31.3.0 Safari/537.36" version="24.7.5">
  <diagram id="C5RBs43oDa-KdzZeNtuy" name="Page-1">
    <mxGraphModel dx="1064" dy="623" grid="0" gridSize="10" guides="1" tooltips="1" connect="1" arrows="1" fold="1" page="1" pageScale="1" pageWidth="827" pageHeight="1169" math="0" shadow="0">
      <root>
        <mxCell id="WIyWlLk6GJQsqaUBKTNV-0" />
        <mxCell id="WIyWlLk6GJQsqaUBKTNV-1" parent="WIyWlLk6GJQsqaUBKTNV-0" />
        <mxCell id="1MHxYv4NEc_xNm7CHqnl-14" value="Coleção" style="swimlane;fontStyle=0;childLayout=stackLayout;horizontal=1;startSize=26;fillColor=#dae8fc;horizontalStack=0;resizeParent=1;resizeParentMax=0;resizeLast=0;collapsible=1;marginBottom=0;whiteSpace=wrap;html=1;strokeColor=#6c8ebf;" parent="WIyWlLk6GJQsqaUBKTNV-1" vertex="1">
          <mxGeometry x="105" y="295" width="180" height="208" as="geometry" />
        </mxCell>
        <mxCell id="1MHxYv4NEc_xNm7CHqnl-16" value="Uf" style="text;strokeColor=none;fillColor=none;align=left;verticalAlign=top;spacingLeft=4;spacingRight=4;overflow=hidden;rotatable=0;points=[[0,0.5],[1,0.5]];portConstraint=eastwest;whiteSpace=wrap;html=1;fontStyle=4" parent="1MHxYv4NEc_xNm7CHqnl-14" vertex="1">
          <mxGeometry y="26" width="180" height="26" as="geometry" />
        </mxCell>
        <mxCell id="1MHxYv4NEc_xNm7CHqnl-17" value="Ibge" style="text;strokeColor=none;fillColor=none;align=left;verticalAlign=top;spacingLeft=4;spacingRight=4;overflow=hidden;rotatable=0;points=[[0,0.5],[1,0.5]];portConstraint=eastwest;whiteSpace=wrap;html=1;fontStyle=4" parent="1MHxYv4NEc_xNm7CHqnl-14" vertex="1">
          <mxGeometry y="52" width="180" height="26" as="geometry" />
        </mxCell>
        <mxCell id="1MHxYv4NEc_xNm7CHqnl-18" value="Código da região de saúde" style="text;strokeColor=none;fillColor=none;align=left;verticalAlign=top;spacingLeft=4;spacingRight=4;overflow=hidden;rotatable=0;points=[[0,0.5],[1,0.5]];portConstraint=eastwest;whiteSpace=wrap;html=1;fontStyle=4" parent="1MHxYv4NEc_xNm7CHqnl-14" vertex="1">
          <mxGeometry y="78" width="180" height="26" as="geometry" />
        </mxCell>
        <mxCell id="1MHxYv4NEc_xNm7CHqnl-22" value="Nome da região de saúde" style="text;strokeColor=none;fillColor=none;align=left;verticalAlign=top;spacingLeft=4;spacingRight=4;overflow=hidden;rotatable=0;points=[[0,0.5],[1,0.5]];portConstraint=eastwest;whiteSpace=wrap;html=1;" parent="1MHxYv4NEc_xNm7CHqnl-14" vertex="1">
          <mxGeometry y="104" width="180" height="26" as="geometry" />
        </mxCell>
        <mxCell id="1MHxYv4NEc_xNm7CHqnl-19" value="Município" style="text;strokeColor=none;fillColor=none;align=left;verticalAlign=top;spacingLeft=4;spacingRight=4;overflow=hidden;rotatable=0;points=[[0,0.5],[1,0.5]];portConstraint=eastwest;whiteSpace=wrap;html=1;" parent="1MHxYv4NEc_xNm7CHqnl-14" vertex="1">
          <mxGeometry y="130" width="180" height="26" as="geometry" />
        </mxCell>
        <mxCell id="1MHxYv4NEc_xNm7CHqnl-20" value="Mes" style="text;strokeColor=none;fillColor=none;align=left;verticalAlign=top;spacingLeft=4;spacingRight=4;overflow=hidden;rotatable=0;points=[[0,0.5],[1,0.5]];portConstraint=eastwest;whiteSpace=wrap;html=1;" parent="1MHxYv4NEc_xNm7CHqnl-14" vertex="1">
          <mxGeometry y="156" width="180" height="26" as="geometry" />
        </mxCell>
        <mxCell id="1MHxYv4NEc_xNm7CHqnl-21" value="Ano" style="text;strokeColor=none;fillColor=none;align=left;verticalAlign=top;spacingLeft=4;spacingRight=4;overflow=hidden;rotatable=0;points=[[0,0.5],[1,0.5]];portConstraint=eastwest;whiteSpace=wrap;html=1;fontStyle=0" parent="1MHxYv4NEc_xNm7CHqnl-14" vertex="1">
          <mxGeometry y="182" width="180" height="26" as="geometry" />
        </mxCell>
        <mxCell id="1MHxYv4NEc_xNm7CHqnl-23" value="Atributos" style="swimlane;fontStyle=0;childLayout=stackLayout;horizontal=1;startSize=26;fillColor=#dae8fc;horizontalStack=0;resizeParent=1;resizeParentMax=0;resizeLast=0;collapsible=1;marginBottom=0;whiteSpace=wrap;html=1;strokeColor=#6c8ebf;" parent="WIyWlLk6GJQsqaUBKTNV-1" vertex="1">
          <mxGeometry x="457" y="331" width="140" height="78" as="geometry" />
        </mxCell>
        <mxCell id="1MHxYv4NEc_xNm7CHqnl-24" value="nome" style="text;strokeColor=none;fillColor=none;align=left;verticalAlign=top;spacingLeft=4;spacingRight=4;overflow=hidden;rotatable=0;points=[[0,0.5],[1,0.5]];portConstraint=eastwest;whiteSpace=wrap;html=1;" parent="1MHxYv4NEc_xNm7CHqnl-23" vertex="1">
          <mxGeometry y="26" width="140" height="26" as="geometry" />
        </mxCell>
        <mxCell id="1MHxYv4NEc_xNm7CHqnl-25" value="valor" style="text;strokeColor=none;fillColor=none;align=left;verticalAlign=top;spacingLeft=4;spacingRight=4;overflow=hidden;rotatable=0;points=[[0,0.5],[1,0.5]];portConstraint=eastwest;whiteSpace=wrap;html=1;" parent="1MHxYv4NEc_xNm7CHqnl-23" vertex="1">
          <mxGeometry y="52" width="140" height="26" as="geometry" />
        </mxCell>
        <mxCell id="1MHxYv4NEc_xNm7CHqnl-27" value="" style="endArrow=diamondThin;endFill=1;endSize=24;html=1;rounded=0;entryX=1;entryY=0.5;entryDx=0;entryDy=0;exitX=-0.014;exitY=0.115;exitDx=0;exitDy=0;exitPerimeter=0;" parent="WIyWlLk6GJQsqaUBKTNV-1" source="1MHxYv4NEc_xNm7CHqnl-25" target="1MHxYv4NEc_xNm7CHqnl-18" edge="1">
          <mxGeometry width="160" relative="1" as="geometry">
            <mxPoint x="470" y="372" as="sourcePoint" />
            <mxPoint x="470" y="460" as="targetPoint" />
          </mxGeometry>
        </mxCell>
        <mxCell id="1MHxYv4NEc_xNm7CHqnl-28" value="1" style="edgeLabel;html=1;align=center;verticalAlign=middle;resizable=0;points=[];" parent="1MHxYv4NEc_xNm7CHqnl-27" vertex="1" connectable="0">
          <mxGeometry x="0.6415" y="-1" relative="1" as="geometry">
            <mxPoint y="-7" as="offset" />
          </mxGeometry>
        </mxCell>
        <mxCell id="1MHxYv4NEc_xNm7CHqnl-29" value="1..n" style="edgeLabel;html=1;align=center;verticalAlign=middle;resizable=0;points=[];" parent="1MHxYv4NEc_xNm7CHqnl-27" vertex="1" connectable="0">
          <mxGeometry x="-0.8604" relative="1" as="geometry">
            <mxPoint x="-4" y="-8" as="offset" />
          </mxGeometry>
        </mxCell>
        <mxCell id="rG_FSMGZuGiEe-wdEeD1-2" value="" style="shape=image;verticalLabelPosition=bottom;labelBackgroundColor=default;verticalAlign=top;aspect=fixed;imageAspect=0;image=data:image/png,iVBORw0KGgoAAAANSUhEUgAAAzkAAAEcCAYAAADk7Hq1AAAKumlDQ1BJQ0MgUHJvZmlsZQAASImVlwdUU9kWhs+96SGhJURASuhNkE4AKSG0AArSwUZIQhIIIaSgYFcGR3AsqIhgGdEREQXHAshYEcU2CDawDsigoIyDBVCxvAsswsy89d5bb6911vmys8+/z77rnLv2BYBszpFKxbAmAJkShSw6JICemJRMx/UBAiACGvAA+hyuXMqMiooAiE3Of7fh+wAam+/Yj2n9+///1bR4fDkXACgK4VSenJuJ8ElkfOVKZQoAUAgDs8UK6Rh3IkyVIRtEeGCMBeOMHtOhpk4wdTwmNpqFsDUAeBKHIxMAQHJF/PQcrgDRIcUi7CjhiSQI5yPsm5mZxUO4GWFrJEaK8Jg+I/UvOoK/aaaqNDkcgYonahk3fKBILhVzcv/Px/G/LVOsnMxhiQySUBYaPcFQZ0ZWuIolqXMiJ1nEm4yHOoXK0LhJ5spZyZPM4wSGq9aK50RMcpoomK3SUbBjJ5kvD4qZZFlWtCpXmozFnGSObCqvMiNO5Rfy2Sr9PGFswiTniOLnTLI8IyZ8Koal8suU0ar98yUhAVN5g1W1Z8r/Uq+IrVqrEMaGqmrnTO2fL2FOacoTVXvj8QODpmLiVPFSRYAql1QcpYrni0NUfnlOjGqtAjmQU2ujVM8wnRMWNckgFgiBEkgAD/CBDKSCLCAGCkAHgUAE5ECK/OIA5Dgp+EsUY8WxsqS5MpFAqKAzkVvHp7MlXIcZdGdHZ+Qkjt3hiSPyjjZ+NyHa9Slf9gUAPAsRp2DKxzED4PRzACjDUz6zt8jx2gzA2TauUpYz4Ru/axjk3aABqEAPGAEzYA3sgTNwB97AHwSBMBCJVJIEFgIuUk8mUslisAysBgWgCGwG20EZ2Av2g0PgKDgO6sEZcBFcATdAG7gHHoEu0AtegUEwDEYhCMJBZIgC6UHGkAVkBzlDDMgXCoIioGgoCUqBBJAEUkLLoLVQEVQMlUH7oCroZ+g0dBG6BrVDD6BuqB96C32CUTAJpsKGsCU8E2bATDgcjoUXwAI4G86D8+GNcClcAR+B6+CL8A34HtwFv4KHUAClhqKhTFD2KAaKhYpEJaPSUDLUClQhqgRVgapBNaJaUHdQXagB1Ec0Fk1B09H2aG90KDoOzUVno1egN6DL0IfQdehm9B10N3oQ/RVDxhhg7DBeGDYmESPALMYUYEowBzGnMJcx9zC9mGEsFkvDWmE9sKHYJGw6dil2A3Y3thZ7AduO7cEO4XA4PZwdzgcXiePgFLgC3E7cEdx53G1cL+4DXg1vjHfGB+OT8RL8GnwJ/jD+HP42/gV+lKBJsCB4ESIJPEIuYRPhAKGRcIvQSxglahGtiD7EWGI6cTWxlFhDvEx8THynpqZmquapNldNpLZKrVTtmNpVtW61jyRtki2JRZpPUpI2kipJF0gPSO/IZLIl2Z+cTFaQN5KryJfIT8kf1CnqDupsdZ76SvVy9Tr12+qvNQgaFhpMjYUaeRolGic0bmkMaBI0LTVZmhzNFZrlmqc1OzSHtChaTlqRWplaG7QOa13T6tPGaVtqB2nztPO192tf0u6hoChmFBaFS1lLOUC5TOmlYqlWVDY1nVpEPUptpQ7qaOu46sTrLNEp1zmr00VD0SxpbJqYtol2nHaf9mma4TTmNP609dNqpt2eNqI7Xddfl69bqFure0/3kx5dL0gvQ2+LXr3eE320vq3+XP3F+nv0L+sPTKdO957OnV44/fj0hwawga1BtMFSg/0GNw2GDI0MQwylhjsNLxkOGNGM/I3SjbYZnTPqN6YY+xqLjLcZnzd+SdehM+lieim9mT5oYmASaqI02WfSajJqamUaZ7rGtNb0iRnRjGGWZrbNrMls0NzYfLb5MvNq84cWBAuGhdBih0WLxYillWWC5TrLess+K10rtlWeVbXVY2uytZ91tnWF9V0brA3DJsNmt02bLWzrZiu0Lbe9ZQfbuduJ7Hbbtc/AzPCcIZlRMaPDnmTPtM+xr7bvdqA5RDiscah3eD3TfGbyzC0zW2Z+dXRzFDsecHzkpO0U5rTGqdHprbOtM9e53PmuC9kl2GWlS4PLG1c7V77rHtdON4rbbLd1bk1uX9w93GXuNe79HuYeKR67PDoYVEYUYwPjqifGM8BzpecZz49e7l4Kr+Nef3rbe2d4H/bum2U1iz/rwKweH1Mfjs8+ny5fum+K74++XX4mfhy/Cr9n/mb+PP+D/i+YNsx05hHm6wDHAFnAqYARlhdrOetCICowJLAwsDVIOyguqCzoabBpsCC4OngwxC1kaciFUExoeOiW0A62IZvLrmIPhnmELQ9rDieFx4SXhT+LsI2QRTTOhmeHzd46+/EcizmSOfWRIJIduTXySZRVVHbUL3Oxc6Pmls99Hu0UvSy6JYYSsyjmcMxwbEDspthHcdZxyrimeI34+fFV8SMJgQnFCV2JMxOXJ95I0k8SJTUk45Ljkw8mD80Lmrd9Xu98t/kF8+8vsFqwZMG1hfoLxQvPLtJYxFl0IgWTkpByOOUzJ5JTwRlKZafuSh3ksrg7uK94/rxtvH6+D7+Y/yLNJ604rU/gI9gq6Bf6CUuEAyKWqEz0Jj00fW/6SEZkRmXGN3GCuDYTn5mSeVqiLcmQNGcZZS3JapfaSQukXdle2duzB2XhsoNySL5A3qCgIs3STaW18jtld45vTnnOh8Xxi08s0VoiWXIz1zZ3fe6LvOC8n5ail3KXNi0zWbZ6Wfdy5vJ9K6AVqSuaVpqtzF/Zuypk1aHVxNUZq39d47imeM37tQlrG/MN81fl93wX8l11gXqBrKBjnfe6vd+jvxd937reZf3O9V8LeYXXixyLSoo+b+BuuP6D0w+lP3zbmLaxdZP7pj2bsZslm+9v8dtyqFirOK+4Z+vsrXXb6NsKt73fvmj7tRLXkr07iDuUO7pKI0obdprv3Lzzc5mw7F55QHntLoNd63eN7Obtvr3Hf0/NXsO9RXs//Sj6sXNfyL66CsuKkv3Y/Tn7nx+IP9DyE+OnqoP6B4sOfqmUVHYdij7UXOVRVXXY4PCmarhaWd1/ZP6RtqOBRxtq7Gv21dJqi46BY8pjL39O+fn+8fDjTScYJ2pOWpzcdYpyqrAOqsutG6wX1nc1JDW0nw473dTo3XjqF4dfKs+YnCk/q3N20zniufxz387nnR+6IL0wcFFwsadpUdOjS4mX7jbPbW69HH756pXgK5damC3nr/pcPXPN69rp64zr9Tfcb9TddLt56le3X0+1urfW3fK41dDm2dbYPqv93G2/2xfvBN65cpd998a9Offa78fd7+yY39HVyevseyB+8OZhzsPRR6seYx4XPtF8UvLU4GnFbza/1Xa5d53tDuy++Szm2aMebs+r3+W/f+7Nf05+XvLC+EVVn3Pfmf7g/raX8172vpK+Gh0o+EPrj12vrV+f/NP/z5uDiYO9b2Rvvr3d8E7vXeV71/dNQ1FDT4czh0dHCj/ofTj0kfGx5VPCpxejiz/jPpd+sfnS+DX86+Nvmd++STkyzngrgEIGnJYGwNtKAMhJSO/QBgBx3kSPPW7QxHfBOIH/xBN9+Li5A1DpD0DcKgAikB5lDzIsECYh81ibFOsPYBcX1Zjsh8d79zHDIl8xxVa6MOTU+pb1GfzDJvr6v+z7nzNQqf5t/hf7NQ5HICZ4xAAAAFZlWElmTU0AKgAAAAgAAYdpAAQAAAABAAAAGgAAAAAAA5KGAAcAAAASAAAARKACAAQAAAABAAADOaADAAQAAAABAAABHAAAAABBU0NJSQAAAFNjcmVlbnNob3RIBpLWAAAB1mlUWHRYTUw6Y29tLmFkb2JlLnhtcAAAAAAAPHg6eG1wbWV0YSB4bWxuczp4PSJhZG9iZTpuczptZXRhLyIgeDp4bXB0az0iWE1QIENvcmUgNi4wLjAiPgogICA8cmRmOlJERiB4bWxuczpyZGY9Imh0dHA6Ly93d3cudzMub3JnLzE5OTkvMDIvMjItcmRmLXN5bnRheC1ucyMiPgogICAgICA8cmRmOkRlc2NyaXB0aW9uIHJkZjphYm91dD0iIgogICAgICAgICAgICB4bWxuczpleGlmPSJodHRwOi8vbnMuYWRvYmUuY29tL2V4aWYvMS4wLyI+CiAgICAgICAgIDxleGlmOlBpeGVsWURpbWVuc2lvbj4yODQ8L2V4aWY6UGl4ZWxZRGltZW5zaW9uPgogICAgICAgICA8ZXhpZjpQaXhlbFhEaW1lbnNpb24+ODI1PC9leGlmOlBpeGVsWERpbWVuc2lvbj4KICAgICAgICAgPGV4aWY6VXNlckNvbW1lbnQ+U2NyZWVuc2hvdDwvZXhpZjpVc2VyQ29tbWVudD4KICAgICAgPC9yZGY6RGVzY3JpcHRpb24+CiAgIDwvcmRmOlJERj4KPC94OnhtcG1ldGE+CgLYfUgAAEAASURBVHgB7J0FYBRXE8f/xIEIHoJboUChuEuBom35WkqR4lbcKS0UL1CgOBR3Ky5FCoFAcCnutLh73IVv5oU97i53FwVCMtNedvf5/vZI3uzMm5cqJCz0FUSEgBAQAkLgvRCws7FNUL9+gQGwsrJCWofUCWpHKgsBISAEhMDbIfDqVdRUm4/aOfcUEhKCyMhIRERE4MmTJ3BMmwZhYWFvZxAppFVra2sEBYcgY8aMsEoh9yy3KQSEgBBIlgRC6Q+iva1dsrw3uSkhIASEQHIgkCpVKqXM8L3wSylWasLDw9W5ds15rPCIJB4Bm8RrSloSAkJACAiBd00gIiIcNvTmSkQICAEhIASSLgG2MLCwIsNKj6b4sGXH1tYW9vb2Ko3LcRk+6qw+VJ6Ff2r1WDni/Ej6UGtUJ0Llaema8qT1lYrLU7u6NnVtvSJlK5VK57KqzQ+4f74HOzs79RElh781IkJACAiBD5SA+Bt/oA9Ohi0EhECKIqApN6xE2NjYKGWCrTl8zi5qTk5O8PX1VS5sXIbzWPjIdTmNJ/CsvPA1f/hcU2b4yPlaPVac+FzL5zz+cDusQPE598v964+N+9TK8VHrW0vn9riN99E/9631r92HNn6+X74v/jBLPoqSw09NRAgIASEgBISAEBACQkAIvCUCPDln0RQEdlnjCTofWZngSXn69OmVYsJpXI4/mrDCol1zeRatDNfV8vjI+Vq7fK4pBlyH0/malRStnnE7WhtcV/toY+I29O+Fy2rtcJ5W9230z+2zcP88Lk1YwdHuk/M0rqLkaITkKASEgBAQAkJACAgBISAE3gIBzfKhWR40RYOvWTFgFytWZPiaP2xl4TqasDsbi76Sok30uT5/WDQFgPO4LCsg3K6mBHAZ/fKcr5XT+uM2uA4L1+MPj0lrUxs7X7Pot/cu+ucxazy18fE4+JzzeAyKIyeKCAEhIASEgBAQAkJACAgBIfB2CPDEW1NE+MiTcU050FcatAk8Kz0srIBo5fiaJ/JcnoXT9c85j9P087g9rU39spzGbWuKAdfT2uZzBwcHdc3KhNYmt6uV0e9DO3+X/bMSw+Pi++B+tXFpRx63WHL4yYgIASEgBISAEBACQkAICIG3SIAn4Cw8MWdhpYMn6nzUFBAtXVMu2BWLy/A11+e6bGXRL891OI+VFhYuw+VZ+MjX3I6+aMqAlsbXWh+cpik2Wv98nZT61xjymLR70cavKUCi5GhPV45CQAgIASEgBISAEBACQuAtEtAUEZ6Ys2iTdD7nibumTGiKjKasaO5srNxwOa2sls/tcJq+8sPn2rWmAGj9c7rWt3bU2uI87p/b0+rxuTYmPuePpnxp98FpWn+cxufatdZOYvbPfWhj1rhp4+LrFKPkTJu7CDPmLmEeOunZuS16d26vu5YTISAEhIAQEAJCQAgIASHwtgjwJJwn5jz55wm/NjnX0rRJOys1+mlcTlMiNKWEx8hpLNwel+EPn7NCwhYNrQ/jclyG29fK8zmX4WsWXgOkpWnlknL/+mPnc77/VCFhoW9CN6jbSp4/CpSqZvLGEqroLFi2Gj5+frAiDTpHdjfUq/UZnBzTmuzLUuLEGXPVorNendtFKxYaGoYiFWrh+ukD0fIkQQgIgQ+bgJ2NoQtBXO/mycvncM2QKa7VpLwQEAJCQAi8RwL6CgkrESz6aWqSTnNLTRlixUYro6/Q6CsyxvlcR6vPRy2flQBN+dHqq0z6wWPQKQmv6/P4kmL/PGZt/DxuHqM2fj5G3bF2ZynwyNYdVoBMfdj6E5OsWLsRDx89UV+W3XsPol7j1nj6/EVM1SRfCAgBISAEhIAQEAJCIIUS0BQQvn1WIlgJ0dK0iTqnaR+ezGvnWr6mjHA6n/ORLUD6Zbl9ztOEzzWlSlunw+1pdThfu+Zz/nC7Wj6fJ5X+eSwchY658Tj5yPfE6YqldtNyjE7A2L0teomolGaNvsKAnp0xb9o4VChTEsvXbDQoyg9AX3x8/dQXRD9N/9zPP0D/0uw5t2NOgoKCDfrwDwgwuNbqBQUHK5Oedq1/9PbxNZunX07OhYAQEAJCQAgIASEgBOJOgBUOnqDrKzrapJ1bY4sLT9o1xYSVDf5wGRZ9RUQrx0oI5+uX4TwWfQWFz/nD7Wnj0Opxuywfav889hSzJodv9l1ITnJZe+nlDc3FrGuHVmCXth1rl+ABWXyGjZ2EkNBQyg9F57Yt0LF1M92wbt+9h0atfsCLl95UJgRDf+yNL+rU1OVrJ7v2HsBvk2eqL2VAQCBGDe6P2jWq6vps07wxtuxwp3xrzJk8FjPnL8XpcxfJjc4RS2dPRp5cOcD1Bo0ajyMnTsExbRrUr10DK9dtxr6/VpMfph3adO2PwKAgeHv7YMiPvUyOQxuPHIWAEBACQkAICAEhIATiTkBTPrgmKxqsZLDiwcKKhnauKTD6ZThNU1T4qJXRFBVuQ2uPj6zMsHAbXF6/fc7Xb5vL6edrbeuXSYr96/NK8e5q/BATKo+fPsPtu/fhvu8AVq3fgjo1q+uaDCaLysUj7mQ+tEWfQSMw8ddfcHjnBuxYtxTr/9qBHbv36coePXEaU8YOx/7ta7Fk1mQM/20ybty6o8vnk7v3H2AEpXP+ns2rMGfKWPQb8iuePntuUO6o+ya0/b4JmnXoicoVyuLkvm10LIOFy1erchNoDRB/ebmc57a1pOikRWBgkMo7d/EKgsnC8zeNcdHM33Hz9l2DtuVCCAgBISAEhIAQEAJCIPEIsJLBSgMfeX7GwgoFi6aAaPmadYXTNSWH81j4mtP5w6IpNOqCfmh1tWtNKeBrrX3un8t9KP3zvWr3r92Duh/tJuUYfwKjJkxDq859sHjFWoz8uS+qkDKhSZf2LdWX1fPQMVSvXB6lPv1EZWXOmEFZcXa479WKosk3XyJ3zuzq+uOP8qMBWVc8DhzW5fPJwaP/wJECG6zZtBXjp83GTo/9ykJz9J8zunItvvta+SRWr1QONvRFbf5tQ/Xwq1Uqj3sPH6ly7lSvT9cOurjpXWmcrOiw8BjD6cvdvsePuHjlX3CeiBAQAkIgORKIfP3GNDnem9yTEBACHzYBgwn7ayWGJ/SaRYbvjhUSbYKvXWt3zWW1fE3p0RQo7aj1oeVrdY3raX0kxf61MRsfxZJjTCQe17MmjsbBv9fjz4UzlduXfhMZM6TXv0zwOX/JsmV1ReVyZXSfCSMGoVzpT3Vt58uTS53z4rNMmTLAgcIAsrA16VVkzMH0UtMut+xe993/GiglquUPfVR9+SEEhIAQSE4ElqzegPrN2+Ewue2ak789POFx8Ii57DinR/j7RqvjtXEFgi6cjpZukEBvdB9PHIqQ61cNkt/3RcCpo/Devt7kMJ7MGINIf8O1o2FPH8Nn12aT5d92oqWxvu2+pX0jAvRywXf3Vtz/uQseDO+N4P8uGxUwvAz3eoEn00cbJpq4Cn1wF0/n/I67fVrj+eIZJkokbpK577P/sf3w3bsjcTuT1uJMQJScOCOLX4UaVSviwJETam0Mt/DsxUtyHVuDBnprbtZu2oY79x6oDq7+d0O5stWqVtmgw6oVy+G/G7fgmiUTqlQsi9y5smPqnEU6k6JBYQsXdWpVx9TZC1VUCi42e9EKcHAClj2ehzCF8nidzpSxw3Dm/EWdK5sqID+EgBAQAsmAQACtO+T1k8EhIWbvZtbilVi2dpPZ/NhmhN6/g9sdvsbdni1xs2U9BBw/oKsadPEMwh5H/e7XJRqdvCIlhydUkUGBRjnxv/Tz3GVSQXk2j1ylm9fGtdrF8V/DiuqcFQRTEnb/NoKvnI+W9WLlPHKXochQjk4GeSHXr+DhqP4GadqFDylLt9o1xM3WDfB48gjdvd7r3x63OzUy+DxfMlOrBp5Q3u7cWPF9SW7W5sRgrJERePnnQtz+obF6Ho9++xn6CmhkcBA47Vbbr3BvQAeEPYnygjBumxXPF8vnGCfH6zrs4V3c7dtWMeB2X4WFxqqdV7QfiO+ebXj46wC8WDY7VnViUyjk1n94sWIO7nRrhgjvlyarsBLLCkXAiYMG+UGXzuJOj+9x8/s6uD+oK1j50JfA86fgtXE5XPsMRdYff4WdW06Vzd+zpzN/w4NfuusXx6ugAPgfeePeb5Cpd/F4/GDY586PnL8vgEuDxlE5pFA9XzQdt7t8h3s/doTvvr/1akDd4632/6PxtoDfwT26PP639mTKKHAefwf8D3no8rQTc9/ntKUq4OWaRQi+elErKsf3QEACD7wj6Gx94fU2A4aOMQg8wC5pmlQsVwp9B4/UBR4YOagf8ufNrf4Ia2VyZMuK0UMGoEPPgbCytlIBBAb0+AHZ3bIalNPKmzsOpGhwHHigYp1vdIEH0qRJrYqXK10Ci1auRf3v2sDXzx/NyN1NyzPXnqQLASEgBD40At3btUSH77/TWbtNjj/Krd0gi4PHBAeHwMXZcAJvUEj/gibUD4b1QsZWXeBcoz5Cbl/Hvb5tkGfRX7BJn1G/pNnzVLRgOOeE+Wbz45MR9ug++e9H+fzr18/8Qz/w58Gw3nCqUgvOdRrqZxuev/b7108MunRGTUhzTV+hn6zOrZ1cwB9j8du/iyaFi5Fj4kLYZsoMX1LAUtlFeSFkGz6ZFhZEeSG8Ipb3f/oBjjQulvAXT8nCNRx5Zq+GtXM6mnC3gV3OPHCsUN24C17YoEuLDAxEZHAgck1fjlTkIfFwzEC8JMUsc+cBqszTWeNh65oNboPGwf/wXjwY0h155m/U1eeTl2sXI+jyObwKjzBIj+/FPbJqZKVJf5qSFcD9P5s/FVm6DYyxOVaGwh7TsyTFLJQUpcSS8KdRih1bD80pXMwtwseblCAvXbfhz5/g/sBOyDFuLlIXK4XA08dgRZ4l+sJMnWt9CdusUS76Wl4YK0P0PGKy7Gjl9Y+RgQFgxcylfiOVbOvqpo6sgLFSlfuP1aQsBSrli78fVqnTwOfvjTS+48hN39UwGvfDkf1oTNng8FER+JEyZP9RYbj2/gWh927jbr92yFemEqwcouZK3Li57zN/d7PT9/bej52Qd+l28L9fkXdPQKgnkDkv2jcl7BpmvHknr9XZ+9ef4NDPzk6OukVhXJ9DUGvCIaT1NxQ1bqsmWXf4wyGeuR3NT9K4HCtInlvXaM2iZtVK6sMJaSmi2vTxI8EhpG3pHx/7d/7Uu6uu7Kr505WCw2t6RMHRYZETISAEkgGBX36bhFsULEaTHhQFs1KZUuqS1yNOJkv2gWMnkC93lOuv/sJcLjRozERcv3Ubm5fM0f3+1doydQy5e4smSbfgXL2uyrbPUwC29OaaJ18udb9WaUFXL8CLgsmEUtm0NJFyGzwOqWzt4OuxXWcpiAwJhtvPvyHNp2V03bByoCwJZDVJU7IcMn7fCdbpMqh8tkw8mTwSwdcuIpW1DdLSxC5L1x/Bys2DkX0R9pAY0MTf1/0vVT5Lj0Gqb13jZk747b731rVKqeD7sHY2VFr8j3gifaOW1GfU4mn9ZmyyZIVNZlf9JHX+YtV8ZB30G2wpn8W5ZgN15B+svGjC1hcn4uhQoLBK8nXfinRffEttRtXL2LqrmrhqSo65sbKFKVO7nlqzsM+VT2c54kS2chVYF2U5cKxcU1kC+NnY5cqr6gRdPA3fXVuQsVlHBNAkXl8sPRNzefyMbFzSI02piqqpTG26K4uWpuQEnDxCFoe5yqLCzzdD03ZwrPiZKsuT9Ywtu4AtYYEXortemuuTK4fcuIYnM8Yi/NljpVTy98e59leq3bTlq4E/XhtXqmvjHy//XAAb2ohYe2ZavteG5chA7bCCw5KGrBqa8H0+njQCofdvwco+Nby3rYNdjtzIPnqmKpKuYVP1/fTz3KlVeXMkiwy7QAYc3U+KZRhZgEYjbdkob5fHk4YjiBSZCF9vZX3jStr3OYKUH+6Dv4+p6LnzM+R/A/b5CioFzOWLxsriaE95Lg0akRvdNqXkuDT4Vte3HVmHHAp8DLZQpS0d9Yw409z3mfNss+WCw8fFEPzvJaQu8iknibxjAlbvuL/31l3Pzm3j3Hd86sSmE377Z7zAS7+evoKjn258ns7FOVZ/YI3r6V/z+hv9BWz6eaxAiYKjT0TOhYAQSA4EKpYuibqfVUEuCvn/4NFj8L5imixatQ7b9+xD0UIfoVjhggh4HXVSy+djuZLFaU1k6Vj//g25+S9SFy2p3lBr7aQuXpommP9qlzTJfIJckxcj3/K/EUYTTv9jB1Sec60vkHfJVvWxy5YTr0KiomByJq/jYdeeHOPnkZVhg5ros3VBk7u9WsGhcDHkW7FT1WfliZUaW2onz9z1akKXoVl7XfsqX6ts5sjrKPz2UXuLt6o2rJ2do5UMOn/S7KTOJmMWpC1XJVodViDYve3JlJFkxZgAZmYs/Kbem14sZmjSVpfFlgu7PAXgd8BdKQHsqqSUNyoRm7H67NigLFZsXcvQvKNql60S1k50X6QYsmsduxJyH2GP7unyH00Yguy/Tuft1nVj4RNLz8RSXujDe6oP5vCIrCNWaR05TBZe0XYSLKlog8NsQyaoZ+X20xg8JcUkNmKpT1Zs7vVvR8peD+RbuYssHX+S8m1oWTHXR+C5k/AlBZvdzV7RiwF9CSbFyS57brJETcFj4hRw4pAu26HQJ8gzbz2cP6uPzB37qPvRFBxdITMn4S+ewalqbeRb5U4Wrp/w9I9xupJZ+49ETvr3w98v7d+L9n12IiWV3eV4LKwIprJ3UAoOV05Totyb9XDEm/8dsguasfBzCLp8Ptr32tz3WaufunBxaj+64qnly/HtEjD81/l2+3qvrffu3B78ERECQkAICIGUTeDL12sht+zcjaMnzxjAOH76rIpKOax/L6QlF96/dnpEeynV7OsvDerEeMFhYPVcpbg8u0i9igjTVXWq+rmafFnTBMy55hcIoHUmnGZJeGKvJviv33rzRIwtP5l/oIk5Tf4jfLyQ4bu2UU1Q/6aUC0vtm8rzO+yB9KRkWKWJisbJbj3B/xlOCnn9ka1bDlPVlduOa89fDPJekYWK1z/47NyE9DTesAd3lEsaT7w1lzWuwPmOzOm1GxunsRsVuwKxy1S413NSOijAzuu1LLEZK7fFLlPBV88rZcYmY2aqH0Jt2pKLXIRaB8Xj4z4iyU2RFsDS2pf+apLNb+qDjNZcWHomlvJeUdvcJ7vQhdFEm9dgcZ+veDd3GmOaT8uqoBP8fEPv3FSuVfqWJWZhSiz16X/8INKUraLa5rr8TFN/EmV9MdWWlqaCAJAymoPcJ9naaCwRFCTAm7xI2OWRv/fsTmhF0VuVom9cOA7XNpmyKKWEqzh9Vo8sQsPJXfEZKTaZLbbCrmZs7XIghYODXrAVj9dcsduZE1kMA+llwe2O3ygLqEPBogYvI1TDpPywW16mtt1VO/qd8TMy/j7r57O7mzdZaEXeD4EUo+S8H7zSqxAQAkJACHxIBKxJ+eDQqbwpcmKJff5C5OZCyhQrO9Q+C68RSEduMqaEJ9naRN1UvpbGSo1V6rS6NS68PiBL16g1HLzmRH/tgFZH/8iKFk/k4yQ04aOZq8Uq7E4V4eejG5fFwtwaKXa8fiJTx96wdnRWrkWpaVLPk3B9RY+DNbAbnL7YZnFDOAUFSN+4tUpmNzJ2IVISi7E6f/4l+MOug4/G/qQsGjxpDn/5XE3gc8+MctXiwAPslsXuSiF3boCDM/AnwtcHkYF+yn0q25DfleXF3DOx9Lz4/tmtjCfZuaYuVdYRNRFniw4JWy1YuchA95muYTMEUbAHbi8msdRnJC3mj+k7Yqp9X1I2eWz3f45ys2dLFwd/CFdKNa2JItc/ZspWG5b0/2umlO+EKjkGY6HvLSuAHHQhJnk0bhCyDZ+ivlfpvmqiggm8XL1Ip7S4/fzGKsaRDu3IYqgvT6aPUd/l9N+20k+O1TmzsSWrlsj7IRD12/b99C29CgEhIASEgBBIUgTYDY0DC/yxaDnWbtkOf1IWjIVDTw+fMNU42ey1fe58KnoUWxZY+A08R/rSt6yEvV7kzZNHX48dBusYzDXM6yXYAsHWDQ4OwJ+05aqq4qxYRQb4qcmnVj/YyA0nyoJxUcuO1ZGVDl6QrU0uTS0QT0OueKYirlnqgN2GfLauiypCE1hWJuyMrEHB/14Gr43QF36j771jvbJasWLI0dW0tU+WxsoL1DlogCYRFCVMN+G3slbrSbzJlY2FI2SFPXmo1mnwOpMC6/cj76It6sNrZpyq1SVXst9VWUvPxFIeW1DYTUpz0+PJNpfXxPuvNXDt9Yta48GKFSthsRFLfaYtUxn+B3er9SmqLVIKYxOinN368q/eo2PA66eykPUwAwUrYuHvNY9XU6DZUmLOsqcqxPKHChbxOiQ5R0GzIoVYCy5gsQm6Lw6GoEkq3lbjtXLPVjotqh4r5uzuyYqQEirDroPsNsjucPGRYHJx438PIu+HgFhy3g936VUICAEhIASSIIH6tT7DXtq8eeP2XciZzQ35cuVEmNHb4qvXb+C/W3dU6H4t8IvFW6FJc/Yxf6jITbx3BysIHLWL/fk1YWXhTvfmtCD7jrJeuNT7Rssye3SsVIPK36YwvbVhn7egsp6k+6opvelvqtyEck1bTgEG+uH5Qlo7wmtxaMG/G03G2XWHxfnzr9Rk9FabL2FNC8jT0UJrXnT+bO5EtccHuwIFnjmGZwunRi3ypjU9jpVrIeDUMdxsVR82ZLFhdznjAANpSpZXC/c1hcvsDehluPYdjgeDu1G/2+k+fNVY7Gmht054okqR1Iyj0fHicXbv47DcfF+sLDi/DuZgaazsZvVs2q9R+/gQm8gAf2QbNknXnWvvISpssNf6ZTRBfhq1MP61FU5XyMSJpWdiKY/dnrIOHIO7vVpGfS/Impjz9/m6HtL9r7kKd80L6JmBXfZcurznS2fBj9zYIvy8ye0vCDyxdqpeB5k69IalPu3zfgTmzlHD+LsY4eulFETmzhP+u92/V32wgsBR6zh4Rc5py6I9A91AXp9wMA1Wlm62rK9c4FiZTk/jj0nYmvZ05jhlFWOl8lbrL2BDFi4OB81i7ZJORSnksbGSl2P83JiaVPmupKA8/m2QCnihuallGxr1rIOvXcKjCb8olzf+t5epfS/wCwKWp3MmwfvvTfRvqwCFUSfXUfoOciCB7COnqfyYfrACFXDqCEXsMx0yPab6kp9wAqlCwkLZ9iwiBISAEBAC74GAHfv+J0Ce0B97V5qgirwh8MLLG2cuXHqT8Posf57cyJvL9FoR48JeFL0yPQV3MSWR5HbGio+9UVhcU2WN0/itMbtkmRJ2LeJF3JoSYlyG1w249hsRbfEzl1NrEzgctYmJuNqQkybROkuFUcO80J4n2cZ72hgVM7jkIABWFLiG9jIwSFcXNBnkDR6dqkRZmKIXMJ/CygavQeGF9nERxY4scKbuwdJY2foTSXvEWadLb7I73h/GmqKeGa+pMlnYKNHSMzGbR98tttSYGo9iQ8+J3fviI2b7pMbUfXKUPFPPMz6dUR3lTsYula9d7uLZTLRqKjCEmecVrbBeAkde4++WqX8HltjoNRGn0wcj+qhQ5rF5YRGnhqVwrAmIkhNrVFJQCAgBIZD4BETJSXymJ89ewKCxUe5D+q23b/4dmn/zlX5Skj/ntQ5WNKnlN84v1y9VkdJMTdKS2o2w0sEbL+YYM8uk4pHUxivjEQKJSYDd6YIvn9Xtu5SYbUtbsScgSk7sWUlJISAEhECiExAlJ9GRJqsG/Y96IuCfQ8qdiDcS5fDPH4zwuodEtAx8MPctAxUCZM1UQq6QIu+PgCg574+99CwEhIAQgCg58iUQAkJACAgBIZD4BCS6WuIzlRaFgBAQAkJACAgBISAEhIAQeI8ERMl5j/ClayEgBISAEBACQkAICAEhIAQSn4AoOYnPVFoUAkJACAgBISAEhIAQEAJC4D0SECXnPcKXroWAEBACQkAICAEhIASEgBBIfAKi5CQ+U2lRCAgBISAEPgACIbSvisfBI1iwcq3a/NM/IDBRR7318mHc9XoC3+AAbLywHwGhwQlu//rz+9h59Zhq5/idSzh572qC25QGhIAQEALJkYBNcrwpuSchIASEgBBIuQSu37qDMVP/QIPPa+C7r+rj0rX/MHHWfHzfqCFqV6+iAzPkt0k4cea82vSTN/esWbWiLi8xTgZvn4MRdTugeLYC6LVpCo71no+0dg7Yf+MsuqyfgDwZ3JQC5OqUHr/W+wFFs+ZV3Zaf1gk2FHrZlnaYZ7FKZYW9Xaer84O3zmH+sb9Q7+MKWPzPDqSxtUeZnB+rPPkhBISAEBACbwiIkvOGhZwJASEgBIRAMiAQFByMm3fu4aWXt7qboKCoa18/f93deXn7KAWndPFPMGnkYPCuFlYW9rR49uIlMmfMoKsfmxOX1I5wcXBEOoe0qrjL6yNflMpRCCtbDFfpK07twk/bZ2FbhzcbmK5uNQo502VR+fo/0qn2HFVSOmo/NSk5IkJACAgBIRCdgLirRWciKUJACAgBIZCMCYyfORddBg5Vd3j1+k206NYP85evNnvHF65cQ+MO3bFh206zZUxlZHXKADfnjMiYNp1Sdpzs05gqhrqFyuH6s/sm84wTszplpDYzqWQ+54+IEBACQkAIRCeQYiw50+Yuwoy5SwwI9OzcFr07tzdIS24XEZGRsLYSXTa5PVe5HyEgBOJPoHjhQrC1scGWnXuQO0c2VChdAgXy5jHboFuWzChbojgK5o9yJzNb0CijUp5iyO6SWVmIGhWvbpQbdfk8wAdzj25BudxFDPInef4JTSn6ulg1lCbLD0uu9K4om6uwOmf3NnsbW3UuP4SAEBACQsCQQIpRcowVHMagpSVE0VmwbDV8/PzUH7Ec2d1Qr9ZncHKMck0wRP3urkpUrQ+PLavALhr1m7TB7o0rkdU187sbgPQkBISAEEjCBOrT72lWaljJKVywANo0/dbiaDORm9rEEYMsljGV2a96M13yr/U66c755OS9K6g9t49ad1My20f4o1F/g/wq+YojM1mAWLK7RFluos4zo0vFr1V67YJl1VF+CAEhIASEQHQCKUbJiX7rUSms6GjKjnGZ2Fh6VqzdiNL0hs+NlIjdew9i6uxF2LRiHrJkev8uBG5urpgxfhSyZH43YwkLC0O/IaOpz5HGKOVaCAgBIfDOCORwy6pePPn4+qk+vX191TE7pScVKZOzsG5Njqkxlc9V1OSaHFNlJU0ICAEhIASiExA/puhMdCnmlB9dgdcnzRp9hQE9O2PetHGoUKYklq/ZaFCEJ//6wn94X73iZa7RJZwi/Pj5B0TPoBQOd8oLak0Jp3NdfWE3tc+qVICVkbsaW3j0+/cPCDC41tqw1B+X0SYQWnl2jdu5x1O7NDiau+cACtnK4xERAkJACCQWgfTpXJSF5sCxE1hKL6JWrN8CB3t7lCpWNF5dPH76DF1pDc+p8xfjVV8qCQEhIASEwLsnkOItOYmNPCe5rHFEn9DQMBSpUAtdO7QCu7TtWLsEDx49wbCxk5SyEkoKS+e2LdCxdZQ7Ayspo8ZPw579h5TCkTtndkygiD/58+YGRwQaPGo8LtLi14DAIJQr9SnGkesEu8WxkjCI8o6cOAXHtGlQv3YNRL6KVLeljeH66QO68bRp3hhbdrjDxsYacyaPxcz5S3H63EVqyxFLZ09Gnlw5LPY3ccZc3L3/ENdose5zijaUjd6MLvljIi5cvoZePw9XY/+0aj1UKlcasyeNwaFjJ83eM7PYf/g4wiMi8EWdmhjcr3tiPw5pTwgIgRRKoG2zxhg9ZSYWrVqn1t90atUMdnbxW7/ykiKxcYAC/h3O0djehTRdNpTWU1rrutrYdgwyO6bXXcuJEBACQkAIWCYgSo5lPrHK5bd8t+/ex783bmIVvTGcPGaYrl4wWSkuHnEHl+kzaATmTR2HUp9+Ag5H2qpzH1ISXNGAFJNJM+cpK83hnRuVArL0z/Xo1Ptn7N68EuOmziKXs0zYN2GUstb0GTSS3OIWYuiPvTCBlA5ra2scdd8EW1tb/LFgGQJJEbIkXHbhirVo1qEnfurTVY1pyJiJWEjRhX79ZYDF/rjdE6fPYsvKBciQPh26/zgMi2kSMaDHDzjh8ReKVaqDcwd3qu4fPn5i9p4/p70q1mzahuN7tqgJyO90HzzuNGlSWxq65AkBISAEYkWgXMni2LJ0LlhBcXF2gg39ntSXj/Llwf7Nf+onmT0vQut2dqxaiNQODmbLxCWjev4S4I85OU776YgIASEgBIRAwgiIu1rC+KnaoyZMUwrLYlIcRv7cF1UqlNG12qV9S6WEeB46huqVyysFhzN5vwW24uxw36vK7nDfh77dOqo3jexe1q5FE6yaH7X5m8f+w2TBCcSE6XMwedYCpKJ8z0NHVT13j/3o07WDUnA4oSv155jWfOCDFt99rcpWr1RO/dFv/m1D5c5WrVJ53Hv4SLVpqT8uUJcW7bpStCFWqurVqq4UPFXR6Me+g0fN3jO/UW1YvzZa/tAby1ZvQO8u7UXBMeInl0JACCSMQCra9yYjvYwxVnDi02piKTjx6VvqCAEhIASEQNwJiCUn7syi1Zg1cTTKkguZKcmYIeHuBbxBHa/1yZzxTQABW9v4Pbp8eXKpYdrZ2SFTpgzKT50TWOl4FRm1Tiim/njSoImDgz3Vi3KP09Jie/x91GD8c/octu3yQJ1GLbF700qkc3GObXUpJwSEgBAQAkJACAgBISAETBIQS45JLImfWKNqRRw4ckKtf+HW2V1t4fI1aEBrUVga1KmBKWSl4XU0kaQ0LF65Ft936qXyateoijPnL6Fi+dKoUrEsTtPi14NHT6i8OmRJYdc1LbjB7EUrwIEEEiKW+jNulwMYaDEU7Miyw8oXu+6xWLrn+w8fo/uAISj+SWGMHNQPblmzqHs0bl+uhYAQEAJCQAgIASEgBIRAXAnEzxwQ116kPLJldcWUscMxYOgYg8ADvB6HpT+taeHAA5XrNdIFHphP0do4QtrA3l0o8MAEVKnbCBzBrFCBfKotrjeQorpx4IGKdb7RBR5I6LoWS/1xn+aE3ew6tW6OL5u2Q63qlTFt3Aiz98zKEa8zqvNNS7Im2cGZfOY5oIKIEBACQkAICAEhIASEgBBIKIFUIWGhpmMZJ7TlJFa/QKlq8RoRRyZLbOFwys5OjmB/cWPhMNBBwSEmNxTlkM7hYeFIS1HUjIWjs/EO3jb0SSyx1J+lPvgeWOHRD11t7p6DQ0IQTPcrbmqWiEpeciZgl8Ad65+8fA7XDG82i0zOrOTehIAQEAJCQAjElkCKcVfjjT3jKvGpE5s+ONKPKQWH67KSwqGhTYk9raMxpeBwWV4Um5gKDrdpqT/ONyc8Dn0Fh8uZu2feu0IUHHMkJV0ICAEhIASEgBAQAkIgPgRSjCUnPnCkjhAQAkLgbRMQS87bJiztCwEhIASEQEokkGIsOSnx4co9CwEhIASEQHQC7p4H4U4bL4sIASEgBIRA8iWQeAs4ki8juTMhIASEgBD4gAh40Qag/YaPiTbiXh3boGSxopi/Yo1yGa5DmxInRZl3MAB/nQsGR/X/srgDulU3dGH+858gzD8UgIgIoGJ+Owxt4IS09qkQRtfbLgRhz5UQfJTFBn1qORrc3lO/SPyy2ReXHoUhY1orDKjtiOoF7VUZj6shmLTbn9p4hSZlUqNTlTd93nkRgR83+OB5QCRK57LFmP85w84m+ppSg87kQggIASHwngmIJec9PwDpXggIASEgBBKXQCqrVEifLp1aG3jzzj0Eh4Sqa97A+F0LB3DhwCuxlWtPwnH3ZQTW/pABy9ulx85LwTh+K1RXffuFYMw5EIAV7dNjb79MqJjPDva2UQoHKyj3qG4QxRNixURfONR/k/kvUZmUogMDMmNm83RweF3viW8kBm70wcLW6bC1e0ZsIQWLlR5NWi/2Qq+ajvDok0kpU+N2+WtZchQCQkAIJFkCsiYnyT4aGZgQEAIpgYCsyXl7T/n46bMYSCH2O3zfBK2bfKPr6LuOPcgKEoECefPgwpVr+KRwQQzt20NFveRojzMWLsXB4yeRiv7Tgr3069weZUoUw449ntiwbSeevniBT4t8jAHdOyGds/lNjPsNH4vrt25j85I50QKy6AZk4WQ2KTQ+gZH4uZ6TKtVgxguM+doZJXOaV9jY0nOCFKMpTVx0LXv+G6KUo9UdM+jStJNZ+wMQSIoRW3ZY2BK09lQQ5rVMh/P3wzB8qy82dY3ajNo3+BWqT3yGM0OyaNXlKASEgBBIkgTEkpMkH4sMSggIASEgBN4mAXZpc6Rw/KWLF8WJ0+fw9979qrutu/di2+59aNv0W9SljZgfPHqMimVKIrubKzwOHsH4mXORI1tWdGzRBBev/YfRk/+wOMxyJYujcrnS8VJwuOH910KUtUbr5PozCtFPhptBm3wxarsfrjwO17IsHi8/CkeJHLZYeDgQPVZ7Yx0pMcFhUTtI3HkRjoKuNthxMRgz9vnjIzq/+zKq3dtkGeK8G9RvrzU+cCK3OK4VEh5V12KnkikEhIAQeI8ERMl5j/ClayEgBISAEHg/BDJnyohh/XticJ9uSgE58s9pNRBvH191LPpxQRTMn1edVyhdAm6uWbD30FF1nTp1arAbnIuTE85euoJwXhxjRpp9/SV+6tHZTK7l5CVHApV7mLZuhpWSgJBXWHsyCD9UTYMqBezQatHLWCkcz/0j8df5YOTKYE0WGyccuRGKubT2hyWU9Blbmg14kcXoGa3bsbVmJSZqbKGkzNhap1KWnkc+ESCPONhQWa4jIgSEgBBIygQk8EBSfjoyNiEgBISAEHirBCIiIgFasMKbGLN8U7821v61HV1+HKLSq1cshxKfFFF5IbS2h/c4s6IPH0sWK6I+fJ3YwgrJGrK2bOj8xr2M19BkT2eNgXUd4ZLaCnkz2aACrcnZR9aeekUdLA6hQGZr1Clij9qFowIN9P3cEW2WeKE3rbXJRm0+8I5Ax9fBBv65HarSuEHuj9cBFctui3W0TiiccLFrm5ND4t+zxRuQTCEgBIRAHAmIJSeOwKS4EBACQkAIJG0CgUFBWLF+s87ywtYWvr738JFu4D5+ftjmvpfW3yyjKGavdIqM55HjsLG2weSRg7F05kQM7dcDtrTBMUulsqVIH3qFsLAwVKtQDsVpTU6tqpUsuqItWb0BwydM1fUbm5PlxwKxgKKnre2UAWnsDJWJShQ4YOWJINUM62en7oQhJ1lnYhIOULD9Qgj8aE0NCysybNVh4QhuvI7nJUVPY8vN/EOB+LJYlNJUJrcdLj4M17nFLT4SgJofRylKqrL8EAJCQAgkUQJiyUmiD0aGJQSEgBAQAvEjEBBIIZYpTLQmp85dAH/y5MyBnNncVHLhjwpg94HDOEcKEK+5adu0kUpnF7Wg4GD0GTpaXdtYW6NIoY8wedQvaPRFXbA728Ydu9Q+Ow729mhD9YoVLqR1Fe149foN/HfrDiIjIy0qQ1pFjmrWd50PClAI6M+nPmcjk5KjP2WGNb2W/I2CDrRd6oUtZ4PgQwpLMwr3XNQtKgjBFA9/bD4bDG9yO2Nry+l7YfiClJWBdRyV1eeX+k6oNeU53Fys4E9ub0vapldtF85qg69LOKDK78/IPc4KZXPbonGp1CqPXdcmNXZGozkv4OpsrVzVVrZ/Y12KGp38FAJCQAgkPQISXS3pPRMZkRAQAimIgERXe78PmxWitGmiJvQ8ktFT/lDBBvpQNDVWdnbuPYC/PTwxbfRQnbWHrTkvKXBBehfnGBUXVm7CyBXO3s4uUW+ULTL2pNvY0XqZuAgrTbz2JgPtk2MsHEyA1+I4m3BF4z17uB7vryMiBISAEPgQCIgl50N4SjJGISAEhIAQeCsE9BUc7oDX5ly/fQerNmxR625OnbuIEkULU5jpN9YaXo+TMX26WI3Hysoq0RUc7ji+a2J4+ZApBYfbtKcNPu3NzAo4opsoOExJRAgIgQ+FgFhyPpQnJeMUAkIgWRIQS07SeqwcKe3A0RNq/Y5jmjTIkysHShUrqhSepDVSGY0QEAJCQAhYIiBKjiU6kicEhIAQeMsERMl5y4CleSEgBISAEEiRBMS5NkU+drlpISAEhIAQEAJCQAgIASGQfAmIkpN8n63cmRAQAkJACAgBISAEhIAQSJEEUoySM23uIhQoVc3gw2nJXSIoso/Ih0VAntmH9bxktEJACAgBISAEhEDSI5BilJwZc5dEo89pCVV0FixbjUl/zMeUWQuwbst2+PkHROvnXSeUqFofL1564f6DRyhRtR4eP3n2roeQqP3xvSyjDfUG/zoB0+YswqmzF2Jsv3PfQdixe1+M5RKzQOM2XXH85JkENZlcnlmCIEhlIfABEOANROMr8a0b33rxHafUEwJCQAh8yARSjJJj7iGxomNs4dGuY6MArVi7EQ8fPUEEReTZvfcg6jVujafPX5jr7p2mu7m5Ysb4UciSOeM76Zd3Ae/50/BE7evQ0X9Q/7s2OHH6HPLnyQ3e06L7j0Mw/LfJaufxRO3MqLG3cT9GXUS7fNfPLNoAJEEICIEYCZw4cx4NmrenDUdXx1jWuEDfYaPRqG0XPH/x0jjL4nVC+rTYcCwyj925hJP3rqqS2y4fxh2vx7GolXSLBIQGI+KVaS+H8MgIvAz0jdPgkxufON28FBYCSZiAmYj4SXjE73BorAD1pg3hYpJmjb5C2VKfqmL9h4zG8jUb0b97J101nizb2kbtSM2JPr5+cHZyNBmSlPdoCAoOgZNjWl197SQkNFTtmp3awUFL0h150zpbGxvY0EcTa9qf4bMqFbRL3TEoKBgODva6/v0DAmgzvDS6a62gpf64DN+Hi7OTVhzsZrVzj6fuWv/E3D0HBASqzfRSp45+T89oEtBn8EiMHvIj6tWqrmuuS7sWaN6hB1at34IW332tS+f+Q4hdGr2N/XSZdBJICpKtrY3Bs9DPT4z70W+Pzy31yc+Md1PX/26Ye2Y8Nkf6TnC+scSHrXEbci0EkhOBsxcvY9r8JShfqgS6tPkef+/dj7Vkaf9fvdr4un7tBN9qSEgIQun3Or90iavw77zgkFC1QWhc6iakz7j0Y6rsohPb4GyfFmVyfoxfdszFkNptkTt9Vuy4chSrzuzGiu+H6apNP7gOrEQMqtUKa856YMSuhXB1yqDLb1/uS7QuUw8T9q3EzqvH4dF1GlLRf8dJkZpxeINqq8asHmA7mU9wAG1OGoosjulV/Xnf/aQUrBWndmFp8yG6NvON+Q43f1mnrhvM74/AsBDYWFkjiI5NS9RCz6qNVR+hEWHoun4i7nk/QVhEOL77tCa6VW6ka+c3j+VYd24vsjpnRDDV/bVeJ1TOW1yX32fzNFx5ehu7fpiiS+MTc3wMCsmFEBAC75zAmxnxO+86eXaYM7sbXnp5IzQ0DEUq1ELXDq3ALm071i6hXbSfYNjYSWDlIZQ+ndu2QMfWzRQInvCOGj8Ne/YfUhaK3DmzY8LIwcifNzd8/fwxeNR4XLxyTf1RLUcK1bgRg5QixH8wB1HekROn4Jg2DerXroHI12+otDFcP31AN542zRtjyw53UoasMWfyWMycvxSnabM7J0dHLJ09We0JYam/iTPm4u79h7h2/aZ6E5nNLSuW/DERFy5fQ6+fh6uxf0oucpXKlcbsSWNw6NhJs/fMLPYfPg7el+KLOjUxuF93gy/Fpm07UerTYgYKDhfIQJvw/dS3G8ZOmqlTcvg+Fq1YA2dSugrmyws/Utw0uXv/AX4aMQ43b99VFrea1SphxE99lTKUmPej9cdHS30y359pPCdOn1XP7Mu6tbBo5Voc270FDvb26nvDz4yFn+vQMRPVd4ZdITu1bo4endqovISwVQ3IDyGQTAkE0oucm3fuqd+drOQcOHJCXXv5+CTKHVetUBY7Vi1U/17j2uDciWMQFhYOO7s3L75i00ZC+tRvn//+BNPLIP0XVPr5ps5dHBzh7JBGZaVL7QS+ZvmsQEkM2DpTKROpbe1V2r7rpzGsTjt1zj/qfVwBU/7XS3etf+Id5Iftl4/gyyKV9ZOxr9tMdc3KzPlHNzDhy266/NhYkWZ80xfF3PLDLyQQVWd2Ra2PyqBo1rxgJcaNFJiFTQcpRazhooEonq0AqpAi8++zu9hw3hPHe8+HrbUNKUJPqcwbJZaVoktPbqn6/z2/j48y5dCNyRwfXQE5EQJC4L0QiP5a+L0M48Pu9PHTZ7h99z7c9x1Q1oU6Nd9YHYLpj+3FI+7qD1qfQSMw8ddfcHjnBuxYtxTr/9qhWzcyaeY8suAEU95GnPD4Czzx7dT7Z2UdGTd1FrmcZcK+rWtwZNdGBWvq7IXqOIGUDmuyBhx13wTPbWtp0pxWWQ8sEeWybb9vgmYdeqIy/bE+uW8bHctg4fIo1wtL/XG7PDlfRgrRsd2b4eaaBYtXrVMWIx437wR+7uBOpeA8fPwE5u6ZFbA1m7Zhy6oFcN+wXCl9bPXQlyvXrqNksSL6SbrzUsU/wZ17D8BWqb9p7c22XR5w37gSnsSofcumSnHjwpFk3enWfwjq1KiK43u2KE7c9/hps3VtJcb96BqLRZ/Ml61NzI+fGVvReEzGwmup+gwaiUmjh+DQ3xuwe9NKbN6+Cxu37kRC2Rr3JddCILkRYMs2r2G5fusOzl2+Clf6HcryitK+79oXoybNUNfXb99R1ys3bFHXs5esRK9fRmH15m1o+kMv/NB/ME6fv6TyVpD1mOvyp32fn7Fw1VqVrv3gF1zc7rcduuPrNp0xln7P8O91Viq0ei269UPb3gPh5fPGJaonWaxHTpyOH0f+hvrkBsdHttCyxNTn8nWb0KJbXzRq1xUTaW2oqd8l2vj4OIhemrTq0V/9btRPt3TOioGbcxQ/tnLwhyWNrQPK5SqMQ7fOq2vvIH888HmGEtk/Utcx/Wj8aQ1MI8vPK2W3ial03POd7NOQcpNPjYlrb7qwH03IesOS1s4BDT6uiC0Xo14oBYeHkfXHSik/nJ8zXRZ8nCU3nyo5cPMsSmT7CNXzlQC77OmLOT76ZeRcCAiBd09AlJxEYD5qwjS06twHi1esxcif+6IKKQyadGnfUikhnoeOoXrl8mSZ+ERlZc6YQVlxdrjvVdc73Pehb7eOShmyol+07Vo0war501Wex/7DZMEJxITpczCZ/oilonzPQ0dVnrvHfvTp2kHn8tSV+mNFx5ywexe7R1WvVE65SjX/tqFyF6tWqbza4ZvrWeqP8+vW+gyuWTKrdtiNjBU8U7Lv4FGz98xvMRuS20jLH3qroAK9u7SP5maWKUN6vPDyMtW0CqzAygG73e3aewAdSLHJlDHKpaFC2ZJ0f+VVvVv0NpcnE8yThe99QI8fdMolpyXG/XA7msTU5x7PQ+jVua3OtbAzud+ZctfzPHwUVSuWRQnabZ0lS6aM2LJyAdgSlVC22ljlKASSK4Ewcv0tWrAAWHnJnSObgTvug0ePwe6wLGxV4WtNqXjp7YNzl65g3+FjqFS2FP4jJWkZKRIshQrkRd3PqqBcyeKqjpf3G0WFlYvOtF7w4PF/VH7dGtXIhdga7F5sTUeuxx87cpnl/vgFjCb8osyT+mOLeuniRcHrb9jFjsVSn39u2ooFZAXOQRb1ijTWbbv3kmI1S2vW5JHHXpks7fx3JrbCVhBtwl8x9yfI4ZJZV7VuoQrY+98pdb3/5hllNWH3M03OPPgXQ/+erz6/71ulJaujm1NG5M3ghh2Xo/6eGWQm4OI+WWEuPb6l3MgukCWoSr7ieEHrbNiNrgjdiyZlchbG1ad31WVxsvywRan6H90wfu8KPPM3/NvDFqfaBcuidqFyyvqktcFHS3z0y8m5EBAC75aAuKslAu9ZE0fr1uQYN5eRJuoJFSuyjlQoUxKZM74JIMBrS+Ij+fLkUtXs7OyQKVMGnbsFKx2vItkLGoipv4zkLqYJKxmv9P5Ya+mxOf4+ajD+oYACbIWp06ilslSkc3HWVa1Uvgx+Gf07KQTt1RomXQadrN7wl3KJY8tRTBJTkcS6H/1xWOqTFa3g4FBd8fDwCOVGp0tIhJOY2CZCF9KEEEjyBIoV+RhsmenYoilWbfwrTuMdMaCXslTz+p4r/15XdcuWKA7+3CEX2E3k9qsvXI6DzvC6n3700kZf2KrUpum3KukWvRTij7FkppcYw/r3RGBQEL5o0RFHKVJjs6+/VP2Z69PzyHH1smrkwD7qdzmP88g/p0lxM1wHqt8XtxlXqVso6qUR1+tTLeqFkdZGHZr0zyBrDAsrO42KvfFk4LRsZAH6vGDUiz97GztO0gkv8u9fvTl6bpqM0fU769ITerKc3Nx4Pc7zAB94dJmmLE6s4LDypf83g//W6Ues47VGLUvXxYLjW1Fzdi+M+6IrvihSCTzOPf+dVGt4XlCbPsH+uPHiAfJnzK6GaolPQu9F6gsBIRB/ArF/lRP/PqQmEahRtaLyC+f1Lyz8FnHh8jVoQGtRWBrUqaHCUPPbQH7Dt5jezn3fKcqPuTa5Wp0hd4mK5UujCr3ZP33+Ig4ePaHq1SFLCruu8R81ltmLVoADCSRELPVn3C67fmiRVO1o8s7Kl2bZsXTP9x8+RvcBQ1D8k8IYOagf3LJmUfeo3z7XL12iGNr3+BFXrv2n3Ey8ySrD4bo3kdvWkB97quJ1a1bDQlqP8/xF1Ju3Y/+cwX7648+SN3dOpHN2Vjz5mjlxyO8GtHbJlMT3fvTbiqnP/5EFa+zkGWpCxM/q19+nmXQx+axyRXrO/+DshShXGTWBoskPW9oSylZ/vHIuBJIrgZKfFIGLkxOq0e9NXrivCU90OciLJdEmw7xOLqay3E4guaWxpDERREVlxPJHRARZeOiXamz65LWd7K7MHxb+HcyRPlUbsewvocUypnFW61SukUXk9P1/USlPMYMmOehA9fxkXadPhdxRVmn9AoWy5EIBWt9y+HaUy5t+nqnzLI7pDKKf+dO6GRcHQ+8FDnrwZ6uRFFwgDE9eW2Qyp02H1LZ2uEwWHk3+uXeFLFRRL/60tDxkWRpd/wf88W1/FRyB0w/ePIdMaV3w16VDWHt2r3JlM3ZZ0+rLUQgIgaRDIH7mgKQz/g9mJNmyumLK2OEYMHSMQeABbbLdn1yoOPBA5XqN1GSeAw/MnzZORdMa2LsLBR6YgCp1G6k1OoUK5FNt8c0P7NlZBR6oWOcbXeABc9HFYgvLUn+W2mD3B14Y/2XTdqhVvTKmjRth9p5ZmeB1RnW+aUlvIO1UwAAOqGAsU8cOw5zFK9GuxwD4+wcqNhXLlcJmcttipiwcbOEGBRWo+21LOFHUOg48oLkF8phmTRqtAg9wOzwBYHevn3p3Ne4q2nVc7ke/ckx9snvhpD/m4esWnWg9TmrFbP1ff0eLnJbVNTOm/jYcHLGPFwtz4IGOrZrh24b1VXfmvk+xZas/ZjkXAsmRACsoW5bNVbcWZaeGepOfnyza/DtjLa2LPHrydKLceilyM+P+trp7qN/F7JJ87tJV9Kd/75oSYqkjHz8/cjfbp1zl2LpQghS0mKRimVLKHW/qvMVwIxfiazduQY2DLOzmZAntOXbr7j2w9SexpO7H5TH5wGqwyxcv2o+r9K3eDK1XjUJ+vcX85tooROtk2IpylyKk5UrnCvdrJ/CJW75oxR3IavRTzZYYvnMBNrQdq/IbFq2qggtwUAK29Oy8egy/fN5G5XHABI6+plll/EOCkDFtlGcBKzRdKn2jW89z/uF19KeAC72rGlq1og1CEoSAEHivBFKFhIVqv/vf60Dedue89018RItyFZ+65ur9Se0fAABAAElEQVSYC/nL5WMKIR1O/uNpKYqasfDiVuMQ0sZl4nrNE2tz/Vlqi++BJ/r80cTcPQfT21VelKvvpqbVMT7ypqBcztyEIaEhpI37067jcj9aHe1oKoQ0B6jInTMH+dpH/WHmqG/fd+qpoqtp9YyPzC+uIaTjwta4P7l+dwTsbOIWZct4ZE9ePodrhqhF4cZ5KfWaXbYGjfkdy2dOQi5aj8NSk16CtKI1ie2aNcZOWsc3a8kKcg0LRgtal/jnxq0qtHS3di0xhgKDuHsexJp505GVFIeuA4fiX1IePDas0OFkd7XW9OLlqzq1MIDWUmpy5b8b+I2CDdx98FAllaX1L4N7d0N6PTfcEWS55fU+GxfPhuYq+13HHsrKzP1dpciVFUqXwKiBfQ0isJnqkyNTTpq9AHsOHKa/HRFgy9WIH3tHc+/VxsfHn0dPUOuM1s2fYfA7Wr9MXM/vej1BpRmdlfXjf6RIaKKFkM5EVhRNviT3L1Y+OIR0eorU1qlCQ5XVc9MUeFG0Nf1w1Kaiq3HhraR0/Oq+WFlXginE9JJmQ5ArfdRLLw4hPZ6isbEiwwENGi78CR0rfAUeFysx3TZMAq/ZCaVoaRz4oBspLyw3XzzE4B1zlPLEARVY0ZxF1hy2MpWe3A6e3f9Q4+Wy3G65qR2xptWvyJcx6vvF6SJCQAgkLQIpRsnhjT1535u4SM/ObWO1T05c2pSyQmA7BZsYP3U2OrRqivTp0mEerRlo9FU9FRVO6KQ8AqLkvJ9nrkUhi2so59iM1p9C+3OYfrbsxEZYyeGXN6vnTlPbBLCFNy7Cbrih/AIsFvXYHZqDMtjTuswPWVgJYaWI3eXiKuzixiGvrVO9eRGntcH78gSFhSJd6qgw2Vq6HIWAEPjwCKQYJefDezQy4uRMgNfZcFQ4npxwZDv+iKRMAqLkpMznrn/XrOTwGqC1ZF0REQJCQAgIgcQhIEpO4nCUVoSAEBAC8SIgSk68sCWrSrxXD0f+4rVCIkJACAgBIZA4BOK+QjBx+pVWhIAQEAJCQAgIASJQIE9u4SAEhIAQEAKJTCC6Q2oidyDNCQEhIASEgBAQAkJACAgBISAE3iUBUXLeJW3pSwgIASEgBISAEBACQkAICIG3TkCUnLeOWDoQAkJACAgBISAEhIAQEAJC4F0SECXnXdKWvoSAEBACQkAIxJMAh00WEQJCQAgIgdgRECUndpyklBAQAkJACKQwAifOnMeS1RuwcsMW3Hv46L3ePY+lQfP2mL9i9Xsdh3QuBISAEPhQCEh0tQ/lSck4hYAQEAJCINYE+g0bAy8fH4Py/bp0QLHChQzSzF2wYjNv+WqkdnBA6tQOyO6WFTmzuZkr/tbTQ0JCaMPPMLVZ6FvvLB4d+Aa/QvulXuj+WVrUKBR9E9QfN/ggR3pr9K75ZpPNL2a+QHjEG+tU/9pOqFMket14DEeqCAEhIAQgSo58CYSAEBACQiDZEbhz/wF8/f1JqflYd282NrH/k7dz3wGkSZ0aGxfPUorO+3YVq1qhLHasWggH+7enBISEhiI4OAQuzk46ZrE96bnaGy8DI/EyIDJalbkHA3D6bhjC9bKCw17h7ssIePbPpCvvZJ9Kdy4nQkAICIGEEoj9b/yE9iT1hYAQEAJCQAi8QwLpXVwweeTgaD32HDwSeXPlRERkBA4e+weffFwQvTq2QdYsmbFl525s3O6O+w8ewdraGh36DkLmjBkwbfRQ1c6OPZ7YsG0nnr54gU+LfIwB3TshnbOzymPrUcH8eVG4YAEs/nM9Hj15ipm/jcDhE6dw4eo12FB7d+8/xFd1a6k2OrVshno1qyEiIgJzl/0JzyPHVTvVSKHp1r4VrFKlwor1W7DDw1Ol849aVSuiw/dN1LWXtw+6DxqBH1o1w80797Bjzz68onU76xbMhJWVlep36dqNePDoMYoWKoh+Xdqre9Q1ZnQyaMxEXL91G5uXzFH1jbLNXs7yDEBmJytkc7GOVuaf26FYfyoI3aqnxaEbobp876BIVSdjWvGa10GREyEgBBKVgPx2SVSc0pgQEAJCQAgkFQLePr4YPHai+rASocnjp8+UMuPn549PixZWysAustyw5MqeDTWrVIA1WX0cHdOi7mdVwEoHi8fBIxg/cy5yZMuKji2a4OK1/zB68h8qj388fvYcuzwPYvyMuSiQN7dSYHLlyAZvX1+cPHsBYWHheEiKz54Dh5WVafPf7qrulLmLsWbLdtT5rCoakgK0buvfWLXhL5VXqEBeNYZyJYsrZcXL21el8w9WjliBmblwGbaTglOpbGk0rPe5UlAuXv0XQ8ZNRkhIKLX5Ofi6BylE4VTHnHAflcuVjpOCc+xWKLZfDMbY/zkjwigwwguy6gxY74sFrdKTgmdopfEOfIWnvpFoMu8l6k57jnE7/UjpNDcySRcCQkAIxJ2AWHLizkxqCAEhIASEwAdAgF3M/AMC1UgDg4IMRuyaORNG/dQXvqToHDh6Apf/va7ySxYrCv6w0pEhnQvaNP1WV2/voaPqPDW5sbHlxMXJCWcvXVGKA1tpWLzJujJu6ECUL1VCXev/YKtP88690eLb/2HtXzvw/KUXeIz7yYLj7OgIP3Kvo+HAMW0anDp/AS0b/w9lSxRXH3a/27QjSinSb5PPWXGZN3EMsmTKqMs6dPwkIiMjyULVGqU/LQZ2RWML1GVSzIqTBcqUNPv6S1PJZtOe+0di0CZfrOyQHnY2hkpMJC216b7KG8O+dELujNY4ez/MoJ0CWWywvH16lMxpi2d+kej2pzem7/NH31pv1uwYVJALISAEhEAcCYiSE0dgUlwICAEhIAQ+DAKspEwfM8ziYLU1LpYsHFoDbBVJRS5k7EbGx5LFiqgPX2uSjvo0peBo+cZHVkTCwsNhZ2er2uT82tWrIJtrFuOiZq9LkVKmr+BwQVZqWOzs7KKOtrbqGBpqqGyoxHj+WHsyCEG0tqb1Yi/Vwj2vCHhcCVFrcz7NYYv/nobjN7LQ8MeL1uv4U3CCMAo0MLNZOtiQHwkrOCzs6ta6QhqspvZEhIAQEAKJRUCUnMQiKe0IASEgBIRAkiIQEBhIa1o268bEysdH+fLoruN6UqlsKfxz9jy5nYXh82qVlRsar9fh9S/xFbYAsZvYfrImZcqQgawshZSVSHORi2+7FcuUorVFuyjk9Bq1jsed3OjSpkmDYtS+OeFw2bfu3sPIgX3MFTFI70aR1PijycCNPiifxw7flkqtkk798kZR23IuGJ7/hmDKdy4q7+D1UBR1s0GG12ty9l0LQQlSjESEgBAQAolFQJScxCIp7QgBISAEhECSIsCuajzJ18SJXMISouQ0+qIueJ3Pxh274L7/kIp01qZpo1iHpdbGYXz8uVcXcCDlpWs3gC0tGdOno5DVrshAx/gKK069O7VVARAmk0sdh7/+bchA2L+27Jhq9+r1G/jv1h3l5pYQxc1U28ZpASGR+I7W4zg5pCIrzysUdLXBGD2Fybi8XAsBISAE4kogVUhY6Jsg9XGt/QGVnzZ3EWbMXWIw4p6d26J35/YGacntIoJcIawT8JYxKfNIzveWlLnL2BKXgJ1Nwt5eP3n5HK4Z3oThTdzRSWumCHAEs5e09ia9i3OCrDjGbbPLHAdDSE8ub4klPFY//wA4O8W81kVznbOkCCXWuLR2eH8dO1rO5GD7xuVPy5OjEBACQiAhBFKMklOgVDWTnBKq6CxYtho+fn7KRztHdjfUq/UZnCgiz/uUElXrw2PLKgQFBaN+kzbYvXElsrpmfp9DilffvCB4/uuISLYU6ajQR/lRmyId8RvGLTt2YxZFFNq1YXm82pZKQiCpEBAlJ6k8CRmHEBACQkAIJCcC8XckTiYU2LrDCpCpD1t/YpIVtAfBw0dPVCjP3XsPol7j1nj6/EVM1d5Jvhu5O8wYPwpZMr+JuPM2O2Y/9Z4/DU+0LjjS0OyFy9W+DxwZadaCZWjXfYBypaheuTxGD/kx0fqShoSAEBACQkAICAEhIASSD4EUr+RYepTG7m3myjZr9BUG9OyMedPGoUKZkli+ZqNBUZ7864uPr5+auOunaefhFGWHXQtMCUfLCQoONpWl0rmuvrCb2me034OxbzVbeNiFQRP/gACDay3dUn9chu9DX9h9bOceT/0k3bm5ew4gn3kejznhCEYDevyAn/t0w4Zlc8BhVI+cOI105CZSlnzO9YXvif3ljYVdMF56eZu8R+Oyci0EhIAQEAJCQAgIASHw4ROQwAOJ/AxzkssaT6h58WiRCrXQtUMrsEvbjrVLaNO2Jxg2dpIK7RlKCkvnti3QsXUzNQJWXkaNn4Y9tJiVJ+u5c2bHBNqpOz9tKMduW4NHjcfFK9cQEBiEcqU+xbgRg5RbHCsJgyjvCO2ozXsr1K9dg/ZdiNpRTRvD9dMHdONp07wxuXq5w8bGGnMmj8XM+Utx+txFassRS2dPRp5cOSz2N5E2ueMdu69dv4nnL14im1tWLPljIi5cvoZePw9XY/+0aj1Uog3lZk8ag0PHTpq9Z2ax//BxtcfDF3VqYnC/7hafhg25rGXNnJmUK18cpEhEsxetwKr501WdxavWKasPl7GySoURtP/F5+TadoX2hOjS7xfFKpCUqblTxuIj2pFcRAgIASEgBISAEBACQiD5EhBLTiI8W949+/bd+3CnHbNXrd+COjWr61oNpon1xSPuag+EPrTb9MRff8HhnRuwY91SrKfN4Hbs3qfKTpo5T1ljDu/ciBMef+FL2vW6U++faQfoSIybOotczjJh39Y1OLIryko0dfZCVW8CKR3WFIL0qPsmeG5bS4pOWgSSImRJuGzb75ugWYeeqEw7eZ/ct42OZbBw+WpVzVJ/XODE6bNYRgrRsd2b4UZ7ObCCwRYjHjdbXs4d3KkUnIePn8DcPbMCtmbTNmxZtQDutK6GlT5z475L1psbFPFn8cq1uH7rtrKW6d/f7n0HsWbjVmxbs1jxmfrbcPQfOhp37j3A33v2o1b1yipvQM8flHKmX1fOhYAQEAJCQAgIASEgBJIfAVFyEuGZjpowDa0698HiFWsx8ue+qEIKgyZd2rdUSojnoWPgdSSlPv1EZfHeCmzF2eG+V13vcN+Hvt06KmWI3cvatWiis1J47D9MFpxATJg+B5NnLUAqyvd8vfO2u8d+9OnaAbavN3rrSv2xomNOWnz3tSpbvVI58P4Mzb9tqNzZqlUqj3sPH6lqlvrjAnUpuIJrlsyqnXq1qisFz1R/+w4eNXvPvPFdw/q10fKH3lhGezP07tIeadJE7a2g3xZbtZp37IUOvQbi6D9nSLmagowZ0usXUYpie+KlbYZXhnYI3/fXanVdp2ZV7CRGA4ePVZYuVh5FhIAQEAJCQAgIASEgBJI3AXFXS4TnO2viaJQlFzJTYjwhN1UmpjTeTZvX+mTO+CaAgK1t/B5dvjy5VHe8C3amTBnUPg+cwErHq8iodTox9cd7OGji4GBP9aLc47S02B5/HzUY/5w+h227PFCnUUvs3rRSrbXRr8+WIbZ8xVc+KVxIuQpuJ2XytymzcOrsBaVMxrc9qScEhEDyIhBJL1L4d15cJb714tqPlBcCQkAICIH4ERBLTvy4xblWjaoVceDICbX+hSs/o/UsC5evQQNai8LSoE4NTCErDbtx8UJ5ds36vlMvlVe7RlWcOX8JFcuXRpWKZXH6/EW1JoUz65AlhV3XtOAGvE6FAwkkRCz1Z9wuW1rofyV2ZE1i5Ytd91gs3fP9h4/RfcAQFP+kMEYO6ge3rFnUPaqKcfzRgNYhLSJeWlS7k7QjeY2GzfDk2XNMn0subLReiS1YHMCAn4GIEBACQoAJLCErcv3m7XCYfkfERU6cOY8GzdvTRqNRLr5xqStlhYAQEAJC4N0QiJ854N2MLVn1ki2rK6aMHY4BQ8cYBB7gCTpLf5qAc+CByvUa6QIPzKdobRwhbWDvLhR4YAKq1G2k1ugUKpBPtcX1BlJUNw48ULHON7rAA6bcvrhsbMVSf5baYDe7Tq2b48um7dQ6mGnjRpi9Z1aOeJ1RnW9akjXJDs7OTiqggqX2zeWxUnb/0WPVrxZ4YNKvQ1QQBV6P04vCWs9bsgpPaO3Uj7SzuIgQEALJn8AEWud45b/rBjfa5H9foL7emskACk3PL5aCQ0IMysV0EULlQylqJgeCiYssXr1erRUc8WPvuFRLcmX5hdKI36ehffPvUKZEsXc+vmtPwrHrUjB2XwnBkjbpkdHxzftaTpvl6Y/n/pHIns4aoxo6o6CrTHXe+UOSDoVAEiCQ4jcDjekZcGSyxBYOp8y7T7MrlrFwGOig4BCTG4pySOfwsHCkpShqxsLR2XjDTJ7kJ5ZY6s9SH3wPrPDoh642d888uQim++WQ0AkVVpy4H+O2ON2LdifnTVq1tUsJ7UvqC4HEIiCbgSYWScN2+g4bTVbvSyhVvCj9ro2aBDcky/lnlSsYFOTfQQ729gZpsbmIT73ev4zCcy8vrJw1JTZdJNkyZy9eRu8hv2Jovx74vFrlBI2T/87w3wAXetEVW9l7LQQXH4Rh2t4AHPoxE9xcrHVVp3j4o2mZ1HBztsaCwwHYdCYYO3q+cfXWFZQTISAEkj2BFKPk8Maesd33RnvqPTu3Re/O7bVLOQoBISAEEp2AKDmJjlQ1qCk5e9YvVy+A9Hv55bdJuPXarZbTe1Co/0plSumKLFy1Fkf+OY1HT54iX+5caPr1l6havgxWUPTMHR6eunK1yA25A0Wq1ITd3pbSBtEPyLJctFBB9KOAKlkpSIvnkePkGrce7KbLL104cAtL1zbfoypFuIyIiMDcZX+qcpxejdK6tW+l1grxC5ruFJnzh1bNcPPOPezYs0+1sW7BTNo37CGWr9uE85evKjdnbqt1k0bgdZPc5zyKmFm9Yjm409YE7FfcsWVTnSXLi/YUmzJnIc6QwpKJgrk0/qo+vvi8hmq7Rbd++Jg8Bob174nrt+9g2PiplPcZWnz7P/QbNgZ3HjxUWwikT+eCNKlT03rRDJg2eqhiam48fF+mpB8FheGomZuXzDF4MWaqrHFaydFPlQKjr+TolzlyIxTDtvpiT59M+slyLgSEQAohkHiv/ZM4MFZWRGFJ4g9JhicEhIAQSGQCa7dsVxEuOZokT+RZKpYuiYL58pA72w0cPXnGYENivl62dhO+qlML3zdqqNZAcl2WQgXykkISDlYQNtF+Y17ebzYfvnj1XwwZNxm5smdDw7qfY8vOPehBysnqedPhRkpNDbIgrdq0Fbx2sS7t4cXCaxFZptDawa3uHmj13TfKfXf+ijVkkXZBy8b/UwoQK00zFy4DL3+sXLY0RZhM91ohiNoAuUnDBmpN4rqtf8PFyQntv/9OheTneh4Hj6BO9SqkHHmqNvicrey9fhmpNk9u16wxrvx7Hb//MR+5c2Qn5ewjpaRpAWbCyHuA22ErOUv50iVUoBreJ604BXbJT8Fs3kT0ND8eVdnEj3K0qbNr5oxxVnBMNKVLOnozFOtOBeHuywiMb+SiS5cTISAEUhaBFKPkpKzHKncrBISAEBACTICtGSypHRx0Ss6XrwO+bNm5Wyk5qsDrH660VpBdiT2PHFNBXCrTxsali0eF/i9L4en5c4f27mIlR18OHT+prCm9OrZG6U+LqbWXG7btxGXakLh4kY9JQcqn6rC7cZum3+qqcpS2/WR1caYNmf38/ekDtb7y1PkLSsnRCoaTtWfexDG6UPmcnjdXTlKMvlaBEx6S1YmVsX2HjyklR6vXjjaA5nVIbEH6k5SsC6SMOaZJozZ1zpc7p7oXK2srlX+KgtqwkmNJmtK6Jl5HycpgNbIS6burxWY8xm03IytZYgvtB63W49zzisCVR2Eoncs2sbuQ9oSAEPgACIiS8wE8JBmiEBACQkAIxI/AnnXL4rQWjyf+K2dNJsvKXuWyxkrDbtqrbMKwnywOgNeWsNhReH51fL13GQc20MSa1kzqX3M6R9MMo3WMHMZfW6dZm6wt2WijZX0pVayogYLDeWtpQ+k/Fi0HK221qlbCvzduwccvyuKiX5fPea2kOpJlRhurFa1V4j5ZAfymQR18lDePKsNpWnmVYPTD2jpq6mB8L3EZj1GTiXpZPq8d+POCgg+UG/cMdYs4ILPTm+AEidqZNCYEhECSJSD/6pPso5GBCQEhIASEQIIJmAjwYqnNvbTRMk/WS9PGzYN6d0UGWt/ygoIFxCQVX6/pYVczthC5ex5EWrKYFCtSSFc1N7mycWQybp/DUD98/ERZX9hli93BMmXIgJpVKiJPzhwGFhJdA0YnZy5cUm5evJ6I6/uZ2D6ALUzbdu+DB90XB1j4+KP8ar0Nr6d5+uIFCtM1u9LlcMuKirQfGys47IJ24/ZdNc55y/806hXk1pZNpW3bvRfHTp3VWcNiMx7jxjiM9/AJU42T43UdGPoKm88G6+oGh7+iiKSvYCevc3VM5EQIpCQC8k8/JT1tuVchIASEgBCwSIDdwk6T8rD5791qLQ8rAV0oQEBMwopK705tsfjP9Zh86QpyZnPDb0MGwv61ZYfrd2vXEoPHTlTWF77u2rYF2F3rZwptz+ttlq7doCw9vB4mu5urUrC4nDlp9EVdNVZuk93MPi6Qnxb/3zMo7u8foPqzsbFWgQQcX0fnnD5mGEZPnolx0+eAXeYK5M2N6pXKqyAC333VALOWrFCufi2+bYhLV/8zaLMYrcVpWLcW/vbYj59+Ha8iV25eOhexGY9BQ3Rx9foN/HfrjrJo6UfkNC6nXXsHReJ/s16qy8e+EWg89yUpiqmwoTNtbm1Lbob/hoAjrKVPkwrXn0Zg3DcucEkt73M1fnIUAimJQIqJrpaSHqrcqxAQAh8OAYmuljSfVSDtoaO5csVlhLz2xY8UC94mwJxwxDR2T2NLj76wguVHi3LYyhJb4To8Vl7Toy8caGD8zLkYTNao6hXLq/5MKRFcN5KsHZryo7WhuaLxOM0Jb0LNFiQer/Xr4AzmxmOuDc1dT18ZNFc2tun0CPCMXNUy0/45cTTkxbYLKScEhMAHQEAsOR/AQ5IhCgEhIASEwLslwKGR4yOsGFlScLhNc0oMBw4wl2duLFzHWMHRL8tWGgcH8/sAmbtPS8qN1j7vO5aJwkfrS0zj0S/L56x4JaaCw22yYpNF1uAwChEhkKIJiCUnRT9+uXkhIATeNwGx5LzvJ5A8+2cLC+/z40YBDOKy0WbypCF3JQSEQEokIJaclPjU5Z6FgBAQAkIgWRNgxUaUm2T9iOXmhIAQiIGArMaLAZBkCwEhIASEgBAQAkJACAgBIfBhERAl58N6XjJaISAEhIAQEAJCQAgIASEgBGIgIEpODIAkWwgIASEgBISAEBACQkAICIEPi4AoOR/W85LRCgEhIASEQCIS8Dx8DBeuXItzixy1TEQICAEhIASSLgFRcpLus5GRCQEhIASEwFskcPnf6xgzbRZmLFymNsQ01dXfHp7wOHjEIOvEmfNo0Lw95q9YbZAuF0JACAgBIZB0CIiSk3SehYxECAgBISAEEoHA2YuX0a73QMxZukq19vfe/ep689+7DVpfvnYTPi6QHxNHDIKVmV0jZy1eiWVUTl9CQkIQShthBgQG6Se/9/OwCGDT2SB0/9MbUz38o43H42oIGsx4gdpTn2P+oQCDfEt57pdD8MXMF6g3/Tmm743erkFDciEEhIAQSCIEJIR0EnkQMgwhIASEgBBIHAKBQcG4eecefP380aXN9zhw5IS69vLxMehgSL/usKMNLXlTS7NCG0saS9UKZbFj1UI42JvfZNO4TlyvX/2fvasAiCrrwp+AoIIYYHd3d3ettXa3aye2a6/drt1d2N3dsXZ3NwYKSvqfc/GNwzAzDKG/wjm7w7x3+35vnLnfPXHJHO7N23eIZ3DYprl2fPy+4vFbP3z2/oqHbsR49OSluz96r/+ArR2dECeGFWrPeYvUzjYok9EO5vIeUDt9qN7GDk6IaRcFPdd+wOITnmhWKIZe63IpCAgCgsCvh0CkITlTZi/A1NmLAj2Bzm2bo2vbloHS5EYQEAQEAUHg90cgqo2NMkG7c/8hLl67gQTxnHWT8vPzw+wlK3Hw+CmVVpxIS4eWTZQ2x5fyJs6cj8MnTyN1iuQqnwkHy7K1m7CdzNc0KVOsEFo1rKvd4u2795i2YKnqz8/XF/lz50T3ti0QPVo0PH72HJPnLMSN23eRPElitGxYB/lyZtfVNbxYtnYj5q9Yg3mTRiFtyhSG2UbvY9hGQZfSDlh55jNO3/cOVGbd+c9okC8GEsWyVundqNzqs58VyTGXd4raKZvJDiniBtTrUd4BLq4fhOQEQlduBAFB4FdEINKQHEOCww9DSwsL0Zm3ZBU+fPyofhyTJkmEimVKIqaDfbg865zFKmHfphVwihsnTO2dIfvxZ89foCj9kO87dAx1a1QJVXtv3N5h+5796kc6TqxYKF44PwrkzRWqtoKrFF5zD64fyRcEBIGIiYAPkYws6dNi+bpNSJE0Md6+/67FmTR7Ibbs3ocmdWqQNsaWfGtWIzZ9pzWuXR0LiFhs23sABfPkRNpUKXDlxi3w9x1LhrSp4Ofni3cf3LFh+268e++uA8/b2wdtew3Ae3d3lC1eBI4ODvjk4aEIzucvX9Cp7xAiXf6oXrEcDp04hX7Dx2HWuOGqD10jeheZaez5cmZDvLhx9VJDf/nQzRdF0tph+5UvuPvaF9VyRMejt76qQXN5BVPbYh6ZtrEpXFTiOU9IU3TzpS+Y95mw8Av9IKWmICAICALhiECk98lhopM2d3GjL9b+BCfLXNcTgXhJP3x+2LP/CCrWbopXb9yCq/bT8pmYTJw2B3fvP0Lzjj1hQ7uboZFDFIGoUp2mOH3uovpRtra2Ro+Bw9Fz4Aj4+/uHpslwqbNp+x7s3HswXNqSRgQBQSBiIZAtc0YcoO+uIvnz4uOnAB8Ujop2iDQ4TEI+fvqE125v4WAfA/9duqwmf+rcBdjQ99ugHl3wV+P6sI8enRbzATZrrHlpVq8WavxRPghQ7AfE3/2VSpdEn05t0b55I/Tq2EaVu3j1hiI/THDaNKmPdk0bgknYsTP/BWlHS8iTIxvGDe6HWI4xtaQwvXsTn4lKv/jvPP3x+qO/IixeARwH5vJYg1M1ezTy5XmD+nPf4vYrP6obRQhOmJ6GVBYEBIGfgUDoVrw/Y2S/QB9MgCzR8tSvWRX5cudQI+4xYDiWrl6PHh3/0s3AhxxU9W2+P7h/hGNMB90Pp64gXfCOH5tZhIaMcLsOpEWytvrOXZ2d4mDl/GnqB96lY2v9rnTXvvRj6+XlDXv6oTcm/MPN8xo5qDfKlyquK9K6aX3Ub9URi1etQwsyvdDEk5xxo0a1CTRnLY/feZzGfrhDM/ebZPoRPXo0VNTvgK5D05ZBE3IrCAgCvzkCubJmRqyYMVG8UD4sXLlGzYY3ZZhg2NpG1X0HlytRFIkTxFf5/P3Jmzh2pOEJiXjSdzdLDPo+MhRv7wDTMfb/YeG+WVj787MkcWxrPH3vh9ZFAywNzjzwBqexmMvjfDaB4xcLa3HWnPu1Ai6ogckfQUAQEAQMEBCSYwBIWG+Tkcka22Xzj1fmgmXQvlUTsEnbdtdFeEoan0EjJ8CLfvD4R68t7fQxUWDx8PBEv2FjcPz0f2pXsVK5Usq0gfNevHyNqhSu9Mz+LXyrTCDyla6G66f2qXuuM3DEeNUu71b+1bQBOv3VTOXtp9CnA0dMUMQnVixHZMmQTv14D+3ngs/knDt0zGTsPXSUSJU1UiZLhjFD+yFFsiSqrvZn07bdyJsreyCCw3lM1OZMGg03mi/LoydP0WfIaNx78EhptkoXL4whfbojRozoGD91NuU/w8079/CGdk4TJ0qIRdPHK1O80M69XsuOuEQ7pCzzlq7CkpmTlJbJEMflazbiwOZVYTb7Ux3JH0FAEPhtEODAAJuWzFbjDfCqgdLS5Kfvs0MnTsOZTMGyZ86gghKwXw5Lkfx5cPPufUwn35pE8ePhk6cn4saJrfLM/cmdPYsKRMBmcKwZ4oABrMHp0b4VcmULyNtK5r6x6XuYw1KzdohN4kzJ8bPnsIy+u4b3dbGof1PtaOlVSBvTiaKu1cwVHQ4UQGDuUU9UyRZAyMzlcX0OTJDA0UqZqI3e+RFNCxrfENP6kndBQBAQBH4FBITkhMNTePHqNR48eoJbd+9hBTmmThwxSNfqFyISV47vBpfp1m8I5kwejdw5sioTiSZtu9FiPwH+IEIzlkgA7x6e2L1BaUCmz1sC1ogEJ0yAuvUbSu2OQk76IWWtS8PWnZE4YQLyl8mJ3oNGYv7UcciRNROev3yFBpRXonAB1ezYf2fB4/NnHN+1Qe0sLiGNTIcef2PzqgWBtEHsKJuTdkSNCfsh8Yt3Rzv0GIBa1SqhRaO6YO1VL+p7zJSZYELFcprMQDYtn6d+sDv2GoSFZPves1ObUM999YLpGDtlltLkdG7TXPUxePSkUOGoKssfQUAQiBQI9O3SDkx6FruuUxtSTkRiktB3MZOZSuRXuf/oSazftgvJEidC6uTJlOYnOGDY/G3y8IEYRd9585a7quL5iEy508ZTHCI2HKZ6xOQZmDBzHmI7OqI3mbJly5TBZLO8KXSDNoXY59MSksUNTaKw0RsvfMF7MknzpAhr5x77oDIRmd4ULCBTQhv8mTMaio57DXs7K+RLERW1c0dX/ZvLc/PwR7NFbxE9ahTSBPmrQAUSWc3kY5MMQUAQ+IUQEJITDg9j2NgpagcvaeKEGNq3Ozn459WZIbRr2Vgtug/Sj2aJIgUUweEueZePtTjbd+9XJGf3vkNYRYt2zaytPdWbu3hlsKM7eOwEipEpBhMclvjOTopIsDnGDvJV4T6Z4LAkInOMJnVrKo0L32/fcwCuC2foTCea1q+ltE537z1EenKw1YQDH7hRKFNzcp/CtbIzLhMcFp4HE5gaTdroSE4FWjwkoJ1RloplSoC1TCyhnbuqbPAnPNsyaFpuBQFB4DdBoHC+3Di0MfD35/51y3Sjj0F+Nv+QlpkjqX2kMNNxYgcEFuAC/B26mDaG+PuMyYkxSZE0SZD2uVymdGmwZNp40rZ7Ku24fohpJjSrZk9R5rqmzJX1+6r/ZxUKUlBWBS7QTzd33b2MA/hlSjqXckCbYvZgXxzHaAF+RlpZU3lO9lbY2cUZb4ns2JMGyM4mcD2tvrwLAoKAIPCrISAkJxyeyIzxw3U+OYbNhTUyGrdnZRVFHTzHYUzZxOG9XkQfw/5+xH0hWjAMIHO4ru1bkhlGgD231g9rnDjoQuXypWlsWqrxd94t1SRaNDt8tSBgwf977tp45V0QEAQiHgIcYECf4OjP0BTB0S9j6prN1UyJMX9EU2U59HR4C5MUOxO//Oby4hLZEREEBAFB4HdCQL61ftLTKkXnKfCBdOcuXlE9ckSf+UtX4w8iByzlSbMxmc5mYDMvlpkLlinfG752Iq0PE5zD3850YEd/TUoWKYQjJ87gwuWrKonN1ao3aq1CRXOI50PHTuHilesqj83Vlrqu16oqDdIEirymOb+yuRqHv06TOoWuDF/w2HOSNqgFRWe7fvO2Ggv788yiMS4kswwmOKlSJFMmGHzPwvOYMH2u6kMlGPzh+dD/SkI7d67MwRIePHoc0BD9NdeWrpBcCAKCgCAgCAgCgoAgIAhEaASE5Pykx8s+MpNGDlYhl4tUrIU/6jRDraqVdCSgd+e2SiNSqHwNlKxSVxEcdthn4Wg/g3p3VT4vxSrVJnLwPWRzwgTxMHnUYBX9rEDZ6ihXoxGqU3hT9o1JQs79Y4f1R4eeA1D8jzpo060fObp+P9emN9mls9lG4Qo1ULBcdTKdO4AZE0YE8sfR4Jkyegidi1MALTr1RLbC5ZGrxB84ceYcls/9F2noLAkrGuOMCcOx+8AR8Dh4HhxhrU/X9loTJt9DO3dusFqlskQcryJPycq4TAf+mWvL5AAkQxAQBAQBQUAQEAQEAUEgQiEQxcuHvBMjgfBZOKGRO+cOh6aa2TqhDSHN2hG2ITdmwvDsxUs0a++CUYP7IK+RU7Q56pqpQ0qDCyFtOBn2z4lJTrZaGFTD/OBCSBuW1+7NhX02N3euz9oo/fGYa0vrT94FgV8BAVubgHDCoR3Ly7dvkCCuc2irSz1BQBAQBAQBQSBCIhBpNDmd2zYP8QMMTR1LOmGbbO1wOcPyTGBMnZHDzvzGCI7WRq8ubdFv6BjtNtC7KYLDhbg/U2fkBGrk2w37GekTCsMyrIHSAigY5pm7D8vcDcdjri1zY5A8QUAQEAQEAUFAEBAEBIHfH4FIo8n5/R+V+RnsoEhpfF5OVYrGk9/M2QvmW5FcQUAQ+NkIiCbnZyMu/QkCgoAgIAhEBgSE5ESGpyxzFAQEgV8WASE5v+yjCfXA/CmqilVw4SZNtB6WuiaapIOlQz8eU21KuiAgCAgCvzoCkcZc7Vd/EDI+QUAQEAQEgd8fAT5fp1bLDuhEhz+HVBZRhMtKDVrgGGnlw0vCMp7wGoO0IwgIAoLA/wMBITn/D9SlT0FAEBAEBIEfhsD9R0/QomtvjJg0XfVx+fpNdX/g2EmL+uRQ/B36DMLZC5ctKq9fyI8OYvby8oKHp6cKt6+fF9y1x+fPKojKF6ofXhLa8TDRYgw4UM7/U5ae9ESrJYEPo37o5oe6c96i9KQ36LXuA7x9I0X8pP/nY5C+BYHfEgETR4L9lnORQQsCgoAgIAgIAopk3Hv4GPxqUqcG+Fwvvnb/+MkidDha5VU6E+y9u7tF5fULOdO5ZpsWz4Y1BXQxFWBGv7z+dccWjdGqYR1Es7PTTw7TdWjHc+vefYWBD5G2sAprkxxCEZDm3CMfrDjzGW6fvh+bwGNpuvAdRvzpiCJpbDF0mztG7/qEQZVjhnWYUl8QEAQiGAJCciLYA5XpCAKCgCAgCAQg4ECHBW/YsRuF9M4H44OIG3VwQca0qTGoR2fcefAQg8ZMRuWyJdGoVnW4DBqBh0+fqQamLViKBSvXIh4RlynDB+Ld+w/oSGZobZrUV6Rp+94DSluzZt40XKBDl8fPnKeDPhGdYTZhSH/dPYf/n7dsNY6d+Q8chj9j2jTo1rYFkidJjL9HTQBrnzTp1KoJCufNrd1i6ZoN2HngsCJrhfPlQZfWzVSEy5mLluP67bsonC83NmzfjVgxHdCuWSPkzp4F5y5dNTuem3fuqXYv0vli9jFiIF/ObPircX14kjap/8jxePn6jeq/Y9/BsLa2RolC+dG2aQM1Th7PJarn7++PYgXzoWndmnCKE1s3Xv0LL29vNGzXDXlyZMXwvi76WWav33n6o+vq95hUNzY6rHivK3vpiQ/i2kdB0bS2Ks2lbEyUGP9aSI4OIbkQBAQBDQEhORoS8i4ICAKCgCAQoRDInysHdhE5yJcre6B5PX3+Qrco9/HxBd9rZlkFKDolh6R/4/YW2TNlQJqUyeFgb6/q+xFR4bLT5i8BG0gVIcLhFDe2Ogw5nnNcVChZVJVbsWFLkMAD/0yYioPHT6FA7pwoU7QwkZM7iBMrlirPJCx96pSKsJw4e16RGZVBf1ZSW/OWu9JBzjnBWpmte/arw6KH9OqKt0S6Ll69DiYSTHQ27tiDJURAmOQEN54Js+bj+ctX6NGuFV4T6bp97wE4/D+TQCY0bNr3ycNTXdtTetpUKb8N6Svek2ambrU/wGZ9a7bsIHIVEy1JA2VM7GxtUShvLmTPnNFYttE0GoIiNn0rxkQqJ+tAZR689UP6BDa4+9oXU/Z7YErdWOpZeJHJmp1NlEBl5UYQEAQiNwJCciL385fZCwKCgCAQYRHIlC4Nrty4hTPnL1k8x3rVK5O5mC2YbBSnxX7Z4kWC1GWtzJzxIxDf2UmXlyxxIjSrV0vds1ZFXzw8P+PoqbNIkTQJxg7qo5+lrquUL63eN+3co/rVL8DEyIY0KUN7d1NmbNdv3cHxM+fAByRrMqRnFyRKEJ+0SdfA+SzmxsP5CeM5g7U5TMiYDDaoUVX1w+e48TxYs8SvuoSHM52Npkmq5MnIBPBPFRzhGZEkHhsTIlMkh+uxxiwkMmnfJ2RNHBWVs0ULYqrG/jdRraPAk84xf/7BD35EiGzIu9ibrOrsZEUTEpilrCAQ4RGweef+IcJPUiYoCAgCgsCvikCCuM6/6tB++3GxhqN6xXLYRtoPfWFfGV8zvibW1gGrZW/v70RCv37ubFkCERz9PGPXPr4+8CPTrhjRoxnLNpvmTXNgczF+sdjSodCsUfLz++6novn+sC+PuXnpdzSQiEcpIl67Dxwhbcx2rFy/GZPJJC8baa9YtEOpvfXIFKe7bt6O6WTGx8SsTLHCuHX3Pj58DN/gBMtPeSJWDCscuOUFHz/gyXs/lJ38Bts6OSFJbGtsu/wF2ZJExZo2ceFLMDDhiRlNtDj8fEQEAUHgOwISXe07FnIlCAgCgoAgEMEQqEqL8TfvvkfnYkLAJmh3HzxSC/Y5S1cGmXGKpIlVGpuGnfzvQhDtSpAKwSTEdnQEa5XYf2bynIXYf/QERk+drfN7MVe9EPnmMFnjesvWbsRNIhU5s2VGtGihD07AWiCOPMcapmb1aqJW5Ypg7ZRmssfjYV8hliWuG1SUOQ7EwHL+8lVlnsc+Q1z+o4eHSjf1h83f+vwzBqs2bjVVJEj6f3/Hx/7uztjbzRnr28ZFUiI2fM3maHlT2OLKM19cf0GqG5KFxz1QOmPosQjSuSQIAoJAhEFAlLsR5lHKRAQBQUAQEAQMEWDzqzLFimDHvoO6rDpV/8CMRcswZ+kqCjZQDVdvBCzgtQKszahWoQzVOaQW6DEd7LGRIqaFRUb+3Qv/TJyGLbv2qSABqZInhdu790hAZmPmhM3A3n34gN0Hj5CWxg+5smbG4B5dzFUJNu/jJw+lGZo6fzG+fPFS/kms8SpaIK+ubq0qFXD6/EXs3H9IYcd+NaMH9EbNyhVwjogOByfIkiGdCqBw/9FjXT3DC/Z5ukYmdBzcIDwkKim0JtR2RM1ZbkjgaK1M1Za3jBseTUsbgoAgEMEQiPLC7bUEmI9gD1WmIwgIAr8PAmE1V3v59g3C2sbvg1b4jVQzReMgA6aENR6srYgTO5bOXMxUWUvTuV8+B8eRIqGFRHgs3kQYOAhAeAlrWTiIAM/PlPB5P9xvnFiOuiKs9eEobI4Ols2B52tLAQisSIsWXuJPKxeOwOZkLwYp4YWptCMIRDQEhOREtCcq8xEEBIHfCoGwEhQhOb/V45bBCgKCgCAgCPwkBGQL5CcBLd0IAoKAICAICAKCgCAgCAgCgsDPQUBIzs/BWXoRBAQBQUAQEAQEAUFAEBAEBIGfhICQnJ8EtHQjCAgCgoAgIAgIAoKAICAICAI/B4FIE11tzqIVmLsocKjQv5o3QJvmDX8O0tJLIAQ+f/miDrbjcK585oN2BkSgQhbchKWuBc2rIj+jD2NjsbRfS8sZ60PSBAFBQBAQBAQBQUAQiIgIRBpNjiHB4YfJaUx+QiscGnPGvKXqNWv+MmzevgefgjkzwNK+psxcgHwlq+KN21tLq5gsd+zkWWzYshMeHp6Yt2QVnZQdcL6AyQoGGWs3btfNc9W6LXj89LlBCctvH/AJ2s07oHjFOgp7nmeZag1x/6HpEKSmWj9Lp5gXq1gbazZsM1UkzOmMV6nK9XH92xkRwTXI8+PPxKUr14MrGiRf/5lbOrfgyjVt64JaTdoF6SskCdcovC5/Flet3RySalJWEBAEBAFBQBAQBASB/xsCkUaTYwphJjrGCBCXD07TwyE9Fy5zDdT0rAXLsHDGBCSIb/7sg0CVfuANL85HT5qBRAniY9TEGahYtiSiRg3ZY9+0fTdu3LqrG+XUWQsx5p9+KFowny7N0ouZRADuP3iMlk3qIn+enDhNB+3ZUWhR7XRtS9vhclHp5G8+4dvOzjYk1UJUltvnQ/dsbEyHmdVv8PGTZ+ozESe2I7JnzaSfFaJrS+dmabkQdS6FBQFBQCHgTyGWQxP2mM+/2XXgMBrWrCZICgKCgCAgCPyfEAjZavf/NMj/V7dMfiwxZyuYLxf69+yEPfuPYOrsRWqR29elg27Y/v7+4Je2kPfy8oYf3ceIHk1XRrvgQ9pCe2jau/cfEItO1ray+n4WQTI6uXvRzAmKCPj7+cORDsYzFHPj0cra28eA66LpuEWnbfcbMgZTZiwIQnK86VRuPguBhefLc+GD+PTl8dNnSJ4sCdq3aqKSc2XPgrYtGukXgTudS8Hma9ynvhim5yASsX/rKv0i6pr7ja6ISdCPN58LwedexNY780FrQMNeH7/G9WqAX/piOA79PFPXlvSrX9fU3PTL8LWpcjxGY8/asL7hPR8MyPPXnqNhvtwLApEFgdOkKR40ZhL4UMy/Gte3eNpe9D3IB2Xevf8Q+XPnQNqUKfDg8RNcvPpdu1usQD7EjRPb4jaloCAgCAgCgkDIEQi6Cgx5G5G+BmsiWFNS+8/KmD53CZ6/fAU28WnWzgVlSxYFmxQ1qvsnalarRNqU6dh/6Dhh9hUF8uTCwD5dEM/ZSZml9R82DucvXlHEIDmRE01OnDmHLr0GY2h/F/xRvhS27NiLYWOmYMbE4chHP6L7Dh3D+H/nqDZi0EFxTBoa1qmuqjPxmjxjPj7T4rVQ/tw4fuo/1KhaEf17dIT7x08mx6P1rb1HQRTEp5O5+ZUmVQrcufdAZbG5WMZ0achMzxPOTnHw79ihmLt4JZat2kB9fkGqFMkwoFdnZEyfBkXK19KaU+ZPrZrUU/fzl67GppXzFKnp3ncoLl+7CfbVYa3TkH7dFFkyls7aJca4R6e/UL92NbWoGDp6ijItsyUtD8+za/uWSnPF40ySKKEyJ3z56g3Sp02NqeOGqoUGmwQaYs9j2LFuMXbsOYh/SXO1Yv6/au7GxmFlZdrqM6T9agBpnx+eG592vmCpK/6l8RbKlxtMSv+o01wRtWH0mWjevocOAzaTG/DPePUZ5OfEB/lphGX6nMVYtGIttrouVJrGIaMmYduu/Ti1fxOYhI2ZPEuZXDLJyZU9q9KyDR/YC8mSJNKGFWHf7z54RJ+fxyhfqoiaI9+zpEmZXHevXasE+fNLI/De3R3dBw5XY7SKYkX/dp1QsnABVChV3OJxe9EBlt6krffw/GxxHS549NRZPHn2HOOH9FMEh9Ou0O/Bv3MXq80f1g6lTpH8tyI5c454YPPFL+ADOKtkj4YOJex5Wnj01g9/LX2nrvX/9CofE2Uz2eknybUgIAgIAj8dAdOrs58+lN+3w2cvXmL1+i3oPXCE+hFj7YQmB46cQN7c2ZEuTSplNrafCEndmlXQtEFt/HfhMvoPHauKsinZxctXUb1yOVStVBa3v5EIrR1T77fvPsDfRI6YKPXp1h4ZiHBMmj4PR0+ewfVbd5SJmjPldWjdhDQknwI1w2ZspsYTqCDd+Pj6gH1zRk6Yrgic/hwvXL6GmHR6d9FC+bBu8w5l/pcvTw50atNMkZ/u/f8hQuUBl06tiQjFVS++LlIwb6Bu9h08pghOl3Yt0OGvpnhOuPL8TKXrV+aFf/d+w/D0+QulJSpdsoh6JvPJp0YT3lktlD8PKlcojVt37mG560aVZSn2loxD60v/Paz91iHyzCaGjD/LngNHlLarARE7JoOasBamz+DRitiwOWDqVMnx4uVrLdvs++r1W5XfVu4cWdGqaX08pJ3nyCSzFq7CHvr8MbnZfeAY+J5fLLp70uyK/B4I+JHW+h75+TFBSUok/RZ9n46cMlOZkFk6g2Jkjrt9xXx0a9PC0iqqXJlihbFs+kTkzJpZV69KuVLYt24ZGvwC5musaWJttqVy86WvIjOubeJiaYs42Hn1C07d91bVk8S2xorWcXWvSXVjw8sPKJT6x5kQWzpuKScICAKCgGhywuEzwAtx1qSwlC9dnLQ2NWhxfl/dVypXEoP7dlPO/j0HjEAp+gHk3XkWT/oBdt2wVS3mWcOSJ2c20np0UXm8YF27KWBRqxJM/DlIJIqja7HGIzXtOrOm5/ylq0iUMD72HjyqduhZk8KkpErFMqhMGgAWDj5w4PAJo+N5/cZNkSZV8NsfJhFjJs9Ud6yV6d+jky6btVhzpoxS92269oNT3DgY909/MnuyApvL9Rk0CmfPXUSD2tVJU7BXleNrFg6KoEnWzOlVHXb2L5g3F9q2bESkLTUt5GE0nbUdmly+doNwfIXeXduhTo3KKvn2nfvYvf8w2rVqrO55LH+TWSHvzrKG6z4taBkHS7E3NT5tDKbew9ovE8NypYph595DirSs2bhNmaJVqVAG975pHLjvqzduKW0e49aaiArLHfpssmlkcHLo6EllPjlx5EDlg5QiaRL0GzomuGoRLl/T1pACjzSWydT8+J3vefdd5PdCIHP6tBjSqyuekXa9QduuYBM01ua4f/qEGeQ/ef7KNdKMeiFLxvRo1ZA2BkjzvGztJmzfRw/8m5QpVkjlaffXaPNo3rLVuHn3HmI6OKBKudJorH2fnf4Pi13Xq82WLBnSw6VdSySMH0+ravKdtd6T5yzEKfqejOlgj6rUZt3qAd9j/Fswdf5iHCENEWvUNTNel7YtkZd+M5au2YCd5P/z+fMXFM6XB11aNyPtrWkfwn4jxuPO/QfYuGiW+l41OahvGRkS2GB4dUd1F8M2CipljYYDN71QIJUtrGmb1Mn++15pN9cPmFA7Fuztvm++BNe+5AsCgoAg8KMQEJITDsjmot3vrqR9SJwoAeLEjhWoxfRpUwW6D82NjXXAY2I/C5aHj5+Gppkw1WH/oelkHucUJ44iUPqNhcccuT02IVs2dzJWUhQvJh77Dx/HqCF9lMmfsfTECRPoDyPYa20By6Zs0Wk+vrTbGxIxNz5z7YS1X267YZ0/sX33AaUNZHLXvFEdRUbM9WuYp/mEuX/8qMzVHj76+Z8jwzH9KvfjhvbWDYWfl7l7XUG5+C0Q8PH1xTkyA2ZJ+C0gzHIiMjv2H0LXv5or/70TZ8/D4ZsPYAb6zvbz8yUzUXdsoKAr79676+Z5kzavuvw9TBGRahXKggMM2JOJMMsV2mQYMHoikidJDM7btHMvOvUbglVz/oUN+Riak8Fjp+DMhUtUr4yKXjl94TLlR1m9Yjls2bMfW/ccUGN98eo1Vm/ahtpVK5H5bQKs3LAF85a7oiAFceHNkK1UliN8MrEzJflzZUcCMt8zZ2Zrqi6nHyKC0/6buZp+OU27kye5aYKlX16uBQFBQBD40QgIyQkHhB1p5y1LpvRGW+KdNxY2NypZrKAyD5swba6KCrZx6y7kzJaZSEMCFC6QB0dPnMbwcf+q3cGtu/bp2kuRLDH9IEWBK+3gfyIfCw5VrUlJ2mVkn5YhoyajGpm57SZTJvbrmTR6EIoVzo95i1dRm1NRlbQ4h46eInM6MqomMTceNn0zFCsra2TNlMEwWd3rm0yVL10MYybNRK+BI5E9S0YyGduqtA75STMTnLDJH/ueNG1QC8XI9K03aYB4Qe/29p3RdH2Sky1zRkW+Zi1crnx47j96rHx0NL8fw74DUAjAwRz2+vVMjY/9riyV0PTLbbNGizV9rPlislK3RpUgXfJuNC90Vq7ZRBoqH7VY4tDcHOiBJUXypOqdfYzSpk6Ja3phsUsULagWgi5kWpgnVzZluqYKyx9B4DdG4MCxk+AXSyr6/DP5YElAvoUsTBgKkF8jp8f/9r2XL2d28Ovhk6eK5KiC3/4cpLb43xZrS0oVKaifpXxxOOBKl9ZNkSdHNrBZ2LqtO9W/s+z0/WRK2KSOCU6WDOnQnbQz7CtZrWkbHDx+Ckxy3hPZRSXxpAAAQABJREFUYuF/345kFszCpIY16FyGCdTQ3t3UbwqbKB8nH04eI0deNCb1/wz63WGsnLG0Rcc9lZamRHq7INnst9OycOBgMUEKSYIgIAgIAj8RASE5PxHsfi4d8ZVIhist/NnRu0DenBjUJ2DHrR9FY+s/zAObtu1RgQfS0SKUnd9Z2Nmf/STYv2QBEZrsWTIpfx7OS5cmJUYM6qXM5dicjAMPdO/YWhf5jNvlwAN8dgsHHtAXc+PRLxeS61oUXMHN7R2WuW7A4WOnkIIW2KyNiRsnsIbLWJtVK5UjZ/eLaryczwvx2tX/QGzSjhlL1378uSyHkZ40ahCGEtmbOX+pInFstsa4BSfmsNeva2p8+mVCcm1pv1qbHEyC/biYSMZzjqsl69451PWYoX0xYPh4RQo58EDCBN9NZcqSn9J2CjTAgSxu3r6nPjv8zlKP/MT4jB8m0BfIN4wDD3CABhFB4HdGgIOi1PyjvAo6koH8IrWFf83KFZCW/n1s33tQmYGx1qVt0wbBhnxmszIWY5ExmdSwaIE+WGPM4u3to975jzXbd5Hom5CyuTH/HmjlbWysla+dVq8GfS+6bt6Gdr0GULyaryhRKL/O34cjWnIkSu0wZW6D22OfJBMcR/Ufmj+bL33B6v8+Y13boN89vHd27K43ptaXiHGhwVbqCAKCwI9BIMoLt9fa5vKP6eEXaZUPMwyNnDm4JTTVzNZRIZvph4gJiaEYC2OsleEfWGvyc9F+RLV0fufzZjiyWN/u7ZUGRz+Pdxc9P38mcwx7/WTdtbnx6AqF8MJUCGlLmuF58pgMwzybSjdsk3dCeRGimWcZ5pu6N4e9fh1Lx6Ffx9y1pf2aa8Mwz1wIac5zIF8C/VDZWn0JIa0h8fPeE8QN0CqEtseXb98grG2Etu9ftR6bkdVs0V5pW4yZbs1Zukp9R+SgDSMOvT+QQkXXIROwTq2a6qbEmpymnXqiavky6NmhtUo/TT4zvYaNBke/rFetMr6QPw9/HzSpU0P5+/QaOgrcJvvxLF69nvK9sWHRTHUWGDfw38XLcBk8UhGVMsWLIDtpx9nEuX2fQSrYTKuGdZSf3e5DRylsdT3y9fkTa7fswPwVazCyfw/l75iIfHw0ssbzWL5uE6qULw1O53K5yf9ywpD+unkYXixatQ6s6Wbtj6Wy9KQn1pz7jOUt4yJmtKD+Ng8pylqNmW4493d8S5uUcoKAICAI/HAEIo0mhw/2NHXopymUuc6PEHOHV7LTqSmJHi2aqSyVXqViaQwZPRn7Nq8IVI5tr00RHC5objyBGgrBDfdpeEaOpdV5nsbmairdsF3NpMMwPbh7c9jr17V0HPp1zF1b2q+5NgzzzJ2RYy6PtUEigkBERoA3YDiYCZOHuRRAIEb06Mr8qzH5vQUnfO5Nr45tsGCFK8bNmKvIRlUiGKyJYV8X9vFZuHItJtKZOMkSJ8KoAb11BIfb5ohrZYncHCLTZH7179peBUIY3tcFg8dOxpwlK9UmVg3SPjWsVV0NJz1poJhIdfsWEpvN0zKTadvEYX+jJZEiDjG/++AR+Pr6IRe1P7hHQPAaU3O5cecublOkScbBEr+cfTe80H3NB6SNb4Oyk9+wMknJiT7xVOABvnn+wQ/ODt8DEASUkL+CgCAgCPx/EYg0mpz/L8w/vvcV5IfBYX/LlixGZ+dk//EdSg+CgCAQLgiEVQsjmpzQPwY+Tycmabg1c6+QtMQaIN5QMazLhIe1s+Y2W/j8KvaPNNzg4HQ7O7tAgQqGT5quorV1I38dJjs7KWLkDor+NmX4QJ3ZGvvgeFOkSC0Igrl5MLnhYAx8vpuIICAICAIRGYFIo8mJyA+R56Yd/hnR5ynzEwQEAUEgvBCI7RgQGjk07RlG0tTa4EAs5ggOl7OPYdxB31i6LxGSOw8eYgWZpXHb/1FgmZxkEqcfCIbN1zQTNm0cpt5ZeyMExxQ6ki4ICAIRCQHR5ESkpylzEQQEgd8OAdHk/HaP7KcO2Jf8Nw+TadvjZ8/hQOQoJUWJy50tiyI8P3Ug0pkgIAgIAr8ZAqLJ+c0emAxXEBAEBAFBIPIgwD44pYsWijwTlpkKAoKAIBBOCIinYDgBKc0IAoKAICAICAKCgCAgCAgCgsCvgYCQnF/jOcgoBAFBQBAQBAQBQUAQEAQEAUEgnBAQkhNOQEozgoAgIAgIAoKAICAICAKCgCDwayAgJOfXeA4yCkFAEBAEBAFBQBAQBAQBQUAQCCcEbOI4xgqnpqQZQUAQEAQEAUFAELAEgS3XjiFHorSIHd0Be2+fRYUMBWBva/7A5+Da/Yqv8NdO6/xW2IrCTvN/LD+iz2/dyJsgIAgIAr8cAhJd7Zd7JDIgQUAQEAQEgbAgcOHKNUyZuwgFcudEu2YNsWP/Ibhu2obqFcvhz0rlwtJ0uNXtv20WhlRoheyJ06LLhkk42XWuIjmXnt1BzUX9kcopMfz8/VAgeRb0L9sUMe0CztbptnEKDt+7AMdo9rqx/FujO7InSoN/j6zB5qtHdenP3d1QNXMRjKnSQaWZ6lNXQS4EAUFAEIhACAjJiUAPU6YiCAgCgoAgAHh+/oJ7Dx/D/eMnRXIOHz+t7t99+PBD4Hn3wZ3OsIlu8YGcPIhYpMGJFc0Bsb+RlVh6pCVD/BTY1nocfInkDNo5Fx3XT8CSBgN1Y+9bpgnq5iitu9cuuharC36xvPr0Dn8u7IvuJepp2Wb71BWSC0FAEBAEIggCQnIiyIOUaQgCgoAgIAh8RyCqjY0y3bpz/yEuXruBBPGcdZl+dMDm7CUrcfD4KZVWvGA+dGjZBGzaxTJ/hSuOnzmH5y9fIXWK5Kj3ZxUUK5BX5Rn+8fL2RsN23ZAnR1YM7+timG3yPmHMuEjk6AQn+9iK7GiaGv0KNlbWcCnRALkmNMddt6dI45REP9vsdd9tM9G9eD0kjOmkK2dJn7rCciEICAKCwG+OgJCc3/wByvAFAUFAEBAEgiLg4+uLLOnTYvm6TUiRNDHevv+uxZk0eyG27N6HJnVqIJqdLeYuW43YsWKhce3qOHH2PJa4bkDV8mXQsGY1nLt0BXwgpymxs7VFoby5kD1zRlNFjKYXTpkNSWLFU8SqZvYSRstworN9LGRLnAa3Xz/RkZz1lw7i8rO7qk6OJGlRO3upQPXXUb7/V3/UMdD2WNpnoMbkRhAQBASB3xQBia72mz44GbYgIAgIAoKAeQSyEfE4cOwkiuTPi4+fPFRhdsw/RBocRwcHSvuE125v4WAfA/9duqzyWeMThTQ6B4+fxJGTZ5Aza2bkyZ7VbEeDenQOsa+PS4n6KugAN/xPxb/Mtm8dhX+qv+rKZEmYCmXT51WvrAlT69L5gs3UJh5ahbFVOgZK55uQ9BmksiQIAoKAIPCbISAk5zd7YDJcQUAQEAQEAcsQyEUEJVbMmCheKB+8vLxUJX9/f7CWJ4oVxRzjyGP0KleiKArlyaXyU6dIhuUzJqJKudLKj2f4pOkYMHqiZR3+gFJvPd1x8dltpHFOqmudfXZKpMmlXhnpWl96b52OHiUbIL5DHP1kuRYEBAFBINIhICQn0j1ymbAgIAgIApEDgWh2dti0ZDaSJ0ms04Ow6Vn+XNnxwf0jnOPGRemihZAyWVKULV5EgbL/6Am4bt6ufGz6dW2PuHFiw+3dO5OAfSXNUJ9/xmDVxq0my4Q2w49MziYfdkXJtLmRTo/kmGpv7aUDsI5ijZrZTJu/maor6YKAICAIRDQEIo1PzpTZCzB19qJAz69z2+bo2rZloDS5+TkIfP7yBdGjRQPvqlpZhZxr88KChXdhf5T8jD5+1Nh/Vrt+9PysQ/H8ftb4pB9BwBgCfbu0U6Rnses6eHv7wImITJJECRSh8aWgBOcuX8XGHXtgTYQoU7o0KkKbsXY4zcfHF9du3YF9jIAQz6bKhST95quHKDurq/KrKZgiC2bU6hmo+qi9SzD1yFpd2sByzVE+Q378s3sh+Q/ZoNi0gJDRXKBgiswYV7WTrqxcCAKCgCAQWRCI4uXj/d3QNwLPOm3u4kZnF1aiM2/JKnz4+FE5jyZNkggVy5RETIfv5xcY7dTCxJzFKmHfphVwihs2s4Mz5y/h2fMXKEoRhPYdOoa6NapYOIKAYhyGdS5FImLhiEUZ6Ee/XMmioSInT2kcjdp0xSeyj58zeTRmLliK7FkyoXOb5qp9S//0/2escgYe1r+HpVVCXC40ffiSGczWXftw8cp1FU42d/YsKF+6uFms2nbvh+p/lMcf5QI7D4d4wCGoMH7qbNiSw3SXti0C1dq8Yy9mLVyKDcvmgh2qg5My1RvApeNfqFy+dHBFJd8EArY2UU3kWJb88u0bJIjrbFlhKRUIASY0H+n7LU7soIdie37+rDZReDMmOPlCpnD870mLzhZceckXBAQBQUAQ+PEIhHwL/ceP6af2wNodJkDGXqz9CU6Wua4nAvESHJJ0z/4jqFi7KV69cQuu2k/Lf+NGTqjT5uDu/Udo3rEnbIikhFTYOXfm/KVgzQb/8M+YtwQtqC3WwoRUtuzcB174nz2wFbkp5Gr39q1Rq1qlkDaDVk3qo3nDOiGuF5IKIe3jybMXqNG4DZav2Yh4znGVM/O0uYvR6K8ueKcX2SkkYwhJ2fH0nO/cexCSKoHK8vOdt3QlJo4YZBHB4cqjB/dV5DlQQ3IjCPwmCLDpmjGCw8OPET260jZbMhU2ixOCYwlSUkYQEAQEgZ+HQKQnOeagNjRvM1W2fs2q6Nm5LeZMGY2CFEp06er1gYr6+PgEumdbcM0UKlAG3bAZF2sDQiPcLpsP6YuzUxysnD8NfzVrgC0r56Nm1Yr62eqa+/Pw8AySrp/AZmE9O7VB324dsG7JLDx88hTHT5/TL6LMPrQEnh+Px1A+eXggedLvZz1kzpgOiRMm0BXjcXymg/wM5T0dtqePS5qUyZGaXvoS3Dw4upIpYqZFXtJvz7APNmvhcRgTbrfngOHInycnXBfOQIdWTZWWZOPyuYhP0ZoGjwrsuMzPydPzs7GmVFpo5nLi9H9GyRT3Y/gZNNYxYzCAokRlJE2doTCJNzbefLlzIJZjzEDFuRyfHWJMLB2LsbqSJggIAoKAICAICAKCgKUIhHxb39KWI2m5ZGSy9vbde7Xgz1ywDNq3agI2advuughPSeMzaOQEtQD0pkVg2+aN0LppfYUUL+77DRtDxOE/pQGoRKZLfM4By4uXr1G1QUuc2b9F3TNRyFe6Gq6f2qfuuc7AEeNVu7xQ/atpA3T6q5nK23/kOOVNUH4TsWI5IkuGdLCjcyGG9nNRZGLomMnYe+goaXisyfk2GcYM7YcUyb6TENWIwR/WBiWMF49IjDuOnDiNKbMW0pijgw/dO7pjHRbQmRMzFyxT5hu2UaNiWH8XFCuUHw1ad8aFy9dUawtXrMH8qWOxZuM25KAISA3pfArG5tCxU2ATEjZ/6u/SETzXZu17KA3Se9KGDOjVReXpm1sxKTI1Dx7f+KlzlK39DbKbZ3IxY8Jw5M2ZPVh89PtYt3kHJpCmhE0RnZ2dMG/KGESP/t2M5fK1m7j74CGWzJoUyE+IsWKTugJlq+PV6zeK8LB2hzFyJHKQPnUqfKQ5ahKauTApKVKxlnqeLTv1Us+XNWWPiIj2GTIa9x48UprG0sULY0if7ohBJ7Pri7k+udykGfMUcVfjTZOaiNR7tGnWEOVKFUPtZu3Rq3MbFCBy/+Tpc/QaPBIPHz1RcypdrDBGDeqj+rN0LPrjkmtBQBAQBAQBQUAQEARCi4BockKLnF69F69e4wEt7HYfOIwVazeRD8b3yDZfaAF+5fhuWvBHRbd+QzD+n79xbOc6bF+zGGspgs/2PQdUS2PJR4KdXE/s3oCDW12JNNgb3TnX61ZdMgHq1m8oJgwfoAjGng3LsXHbLqzfspNI1Qv0HjQSM8YPx+Hta8gHZhRO/nde18TYf2fBg8zPju/agJN7NuGP8qXQocffQbRBWgVeqN4lIrNwuSsRmgdKa8V5l65eJz+fqji8bQ127juE1eu3YNvqhWqek0cNgsvf/4BNuVbOm0pmZvWI3DXExSM7dUSD22AtyeoNW7FpxTzsXreU7r3V/Nm35Qtpt3YQXgumjVMLdi6vL8HN4+qNW8q87cSejWjZuB7GTJ6pqgeHj34frhQ5aXDf7ti1fhkK589DoWUf6Wfj+q3byEJaKX7OhsKajtQpk1GZO9hBz5t9dnavX46DW1ar8Zy7eEVXJTRz4c8K45ktcwaFERMc1ix16DEA5YmInNq7SX2uGOMxUwLmruuQLsz1uWn7Huw9eBR7N65Q423VuC6Y0BkKa+469BpAPmklcJw+w6f3bVbayqFjJ4doLIbtyr0gIAgIAoKAICAICAKhQUBITmhQM6gzbOwUNGnbDQuXuWIoLYSLFsyrK9GuZWNFXg4ePYkSRQooPxTOjOcUV2lxtu/er8ruJnLQrX0r5azOCe2pHi9eg5ODx06QliQfcmbLoorGJy3DpuXzwLv2h4+fVn3myJpJ5SVKEB9N6tbUNckEi03QtIV50/q11IF5d+891JXRLngR26B1F7Tq0hsnztCJ4DMn6QIipKJzJdhpnqOk8XzYl4VNtFhYS1OSQrQeII2SOeExVKtUDo0pKMGSVevQtV1LpQFgvx3W7LCG4sr1WwoXw3aCm0fa1Cl1z6RqxTKKkHIbweGj30/NKhXBz3kUnZnBxCFLxvT62SoUrdvb94HS9G84z5me+a79h9GKiBabEbIUzEdnXRQuoCsa2rnoGvh2cf/hY7wj07oWjeqqlKikUeNnrZFq/fLm+mQtH/s+cRhdFtbYFCnw/fOttcMknzWYzRrUVknsrM3Euwf1GZKxaO3JuyAgCAgCgoAgIAgIAmFBQMzVwoLet7qsKWHfBGMS1sho3KYVHVrnTX49TDTYN+b9e+N+Icb6D6807pc1UMYkPObI7Y4b1h9nzl1Umo7yNRuDtVKxycSOTf12EzlYSyZjbDa2asE0Y8MwmaYt0LkAOwgzjiGVeuR3xf42rIVp0q4bjfVvZYKntZOLgik8evqMzPGu6ginlseaEI50nT5NKi0p1O8hmQv3GVaxjWoDjhylL4b3+nmmrsNjLKbalnRBQBAQBAQBQUAQEAQMERBNjiEiP+i+VLFCSnOgmSa9dnuL+UtXk4lYadVjeTLzmTxzvs5BnH1a2B+FxYk0ALwwP3z8lLpfTJoOTUoWKUR+MWfU4prTOLJb9UatVajo4oXzKx8XNvlief7yFZZSNDhNWPvCfiZsxsTCGhT2OUmTOoVWJMTvPJ/5S1cp/xOufPHKNRykw/VKkX+GOWFzto49ByA7aZ3YXyhRwvg4f+mqMpWaRLiwj9KkkYMo7UoQM76QzIP5jUZygsNHf7xs+sX1ONR11YrlcOzUWf1spdXqTcEnOvQciP2Hj6nnyGSAzb36Dh2Nf/r3VFq6ChROej7543DUO5aTpBU79O258n1o58J1+ZwO1pqwsHYttqOjMi3kew48MGH6XKNhqs31ydq1uYtX4tqN2+pzsmbTNpz+7wI3GUhSJk+qtD2LVwac3cEBNHpQIAb2awrJWAI1KjeCgCAgCAgCgoAgIAiEEgHR5IQSuJBW4whik0YORs+BIwIFHuAFJgsvkDnwQKHyNXSBBzQHcT5scVDvrsrHgnfyK5Qprus+YYJ4mDxqsFpQfqLgBbywbk3mYlpY5rGkHelA5IHb4MADBfPk0tXtTQfiscN+4Qo1dIEHZkwYEabDHdkng8/kqVyvhS7wwMQRA5E0cUJdv8Yu+CA+NnErX6MxaVtslVN+ftKOcaCABeQDVKlOM/B5PfVrVQviOB/aeSRJlBDm8NEfZ1k6F6hp++5qIe9OUeNmThypn62uG9WtgXjxnDCafH469R5EpAhgU7np4/5RZl5ciMnaXQoEUKFWY8SM6aACD7BJniahnQvXZ1MxJhb/zlmo/LM4wAIHHpi1cLku8EAfOsHdUMz1WaJIQaizpMifjINjcEAI1mhZWwfeH2FN34xxw1XggdnUHwdT4MADHOiAzRgtHYvh2OReEBAEBAFBQBAQBASB0CAQ6Q8DDQ60O+cOB1ckxPkcWtmRFri8MDQU3gHnAzeNnWfDu/Hsn2LscLpnL15SFDIXjBrcJ5BDv9Y+R10zdUgphyv28vKGvX34ndjNWg8mJYbhhbXxmHpnkvbli5cyU9Mvw23xmRYa8dPP067DMg9z+GjtcxhlDiHN52rwwt2ccHs8Xv0IbPrlmbx50TxNzSe0c+GAA/zS//xw2OaoZHbGfjnmxFifl6/dUL42THZYGIMSVepiMflkcYhtY8L9WVO0PmOHiVo6FmPtRtQ0OQz0xz3ZpWs2YD9pklOnSI6BLp1+XEchbNmTzuAevv0jTj/wRjwHKzQvFAMVsnyP1vjQzQ+91n3AGw9/5EkeFSOqO8LWJuD34s0nf+y48gXb6NWmmD1KZ7DT9f6Z2u230R3nH/sgpZM1/q5EERwTyF6mDiC5EAQEgUiFgPmVWgSCgnejQyqhqWNJH7zwN0ZwuC4TGP0Fqn57vEg1RnC0Mr26kDZo6BjtNtC7KYLDhbi/8CQ43CbPL6QEh+uxzwz74RgKk0JThEArG5Z5mMNHa5+j37H/UXAEh8tze6YIDuezZs3cfEI7Fx6b4eeH+wmO4PCYjPUZ08FBaR//nb1QRYbr2ncIMmdIb5LgcDvcnzGCo+VZMhYuKyIIhBWBbXsPKhNeJjrGzu0Ka/tafQ7yYclZVFr5zRe/IEtiG+zq4oxh1RwVMWGCoknThe/QpbQD9nVzhr1dFIze9UnLwlsiPu88/fHqo7+61mXQRZ8N7kjoaIV93Z3RonAMtFryDh5e39vVLyvXgoAgIAhEdAQizRZP17Ytwa+IKhfp/Bk+L2fEgF4RdYoyr/8DAuxrw2G9OeDDSfLFKU6R4DRTyP/DcKRLQcBiBNgslP0QG9MZXMsotP/xM/+hUpmSqn7n/kORKnkyMof1w5GTZ5CVoiV2ad0MCePHU/msAdpJRwLwGVKF8+VReVoUSsMB8MG3DSkYSR4yOx3e18Uw2+h9/XzRdenp4tsgc6KoOPvIB8XS2uLSEx/EtY+ConTN4lI2JkqMf41BlQMO3WXNTPoEDrj1Kuih0cfueGFXV2fY0PZlyfR2SB3PBifve6NMxu/aHl3HciEICAKCQARHINJociL4c1S+Hv/83VP5S0T0ucr8fi4C7E/GARc4PHrdGlVUSPSfOwLpTRAIOQJHT59VGuValSsqP8ejtAmkCZ9ttmnnHnwkM9gcWTLhGOXtIlLDsnLDFswjP8Ck5LNXKF9ubN2zHyOnzNCqBnlnrWUhCq2eN0e2IHmWJHj5fiXzMm/kThZgTvrgrZ8yMbv72hddVn9ATNLksC6GywUnhdLYKhM4Lvfxy1f1uvosILBMcHUlXxAQBASBiIZApNHkRLQHJ/MRBAQBQUAQMI3AUYqAyOeGvXn7Tmltzpy/pAKzsEksSwIKdDKMAmOwv9/hE6dxjQ7rZTlI0Q7Zn25o727KfJYP8T1+5pwyRzNlajmoR2dVN6R/ODhJ51UflLaGzdJYvInMRLWOAvbbef7BD35UhjUz3qS4sQvmF7tzKQeMIF+fGYc8kCCmFRLHtiLT2KC+nyEdp5QXBAQBQeB3RCCYr8zfcUoyZkFAEBAEBIHIjACH0r91976C4K8e/XVQnLlwGcUMDrPVSA8HdWHxJvMz9r/jF4st+UJywA0/P3/ybVNJ4fZn4GZ3xI4RBa2KfA/6kiS2NbZd/oJsSaJiTZu48PWHIjwxowVPVjKQKduSFgEHDfMg2ScnlXPAPMJt0NKQICAICAK/CQJirvabPCgZpiAgCAgCgoBlCLAWh6VXxzZYOm0Cxg/pp+4Nz7dSiQZ/CuXNrcL8T6ZQ7MvWbsRNIks5s2VGtGjG/Vo4kmSff8Zg1catBi2ZviW+pEzRWJMzpkasQAXzprDFlWe+uP4iwOdm4XEKx26hTw1HXuO2WTjC2uWnvuKPEwCH/BUEBIFIiIBociLhQ5cpCwKCgCAQkRFgksOamFIU+tyeov0lT5pYnXF1jIIPcIh1c9KyYR28+/ABuw8ega+vH3JlzYzBPbqYrOLj46tM3fgwXktlxI6PWH3WE6x5KTjmtTpTKyf55MxpHJtM1YAJtR1Rc5YbEjhaK1O15S3j6pputugdHlCI6afv/HD0jjemHvDAgD9iolwmO2y88BlLTnqSdshKRV6b1Sg2mbgFrwHSNS4XgoAgIAhEIAQizTk5EeiZyVQEAUEgAiEg5+T8mg+TQ0J7E4FhkhSc8PlethSAwMrI2WfB1TWV709aHg4V7WQfMoMLNm97R2Gm45FPjoggIAgIApEZAdHkROanL3MXBAQBQUAQMIoABxkwFWjAsILm12OYHpZ7jhcQUoLD/XGQAiE4YUFe6goCgkBEQUC2eiLKk5R5CAKCgCAgCAgCgoAgIAgIAoKAQkBIjnwQBAFBQBAQBAQBQUAQEAQEAUEgQiEgJCdCPU6ZjCAgCAgCgoAgIAgIAoKAICAICMmRz4AgIAgIAoKAICAICAKCgCAgCEQoBITkRKjHKZMRBAQBQUAQEAQEAUFAEBAEBAEhOfIZEAQEAUFAEBAEQoiAP5/kKSIICAKCgCDwyyIgJOeXfTQyMEFAEBAEBIHQIPDg8RNs2rlH93r77n1omjFZ5/T5S/ijQUvMXbbKZJnQZrh/+qTGfenajdA2IfUEAUFAEBAECAE5J0c+BoKAICAICAIRCoErN27j37mL4e/vD9a4pE6RHHHjxLZ4jq/euGHIuClo2aAO8ubMFqSeFx3+6U2HhXp4fg6S12/EOGTLlAENa1YLkmdJwhu3d5g4awH+rFQO2TNntKTKDy9z86Uv/t7oDm+/r8iaOCpcyjrA2SH4PdJrz33R3TUwwVzcIg4SOlpj5I6POHTLK9DYE8ayxuLmcQKlyY0gIAgIAqFFINKQnCmzF2Dq7EWBcOrctjm6tm0ZKE1ufg4Cn798QfRo0dQixMoq+B9Lw1F9/WYqEiUcTxj/f/Rh2OePvPejBZ91KLD+kWOStgWBH4FAlXKlwK85S1dh+bpNIe7i2YuXuHrzNt67uxutW6xgPmxfMR+Gh4D6+fnh5H8XQkSoDDsIj6+0dx/c4RAjusWHmRqOwfC+6+r3GFLFEQVT22LBMU96eaB3hZiGxYLcP/vgh2RxrTGmZixdXpwYAd/3XUo7oG1xe136qJ0fkY0IlIggIAgIAuGFQKQhOYYEhwHU0sJCdOYtWYUPHz/Cin6ZkiZJhIplSiKmw/cv7rA8qJzFKmHfphVwihu2na0zZFrx7PkLFKUf5n2HjqFujSohGpb7x0+Yu2SlqhPVxgYZ0qVBuZJFERpy8pTG0ahNV3z65IE5k0dj5oKlyJ4lEzq3aR6iMf09fBxsrK0xrH+PENULSeGQ9vEjPwshGbdW9hrtZnf/exh2rVuKJ0+fo1LdZtizfjkSJoinFZF3QSBSInDi7Hms2bwdt+89oO/X2ChZuCCa1qupvsddBo3Aw6fPFC7T6Ptpwcq1iOcUF1OGD8SytZuwfd9BHWZlihVCq4Z11f1s+o48cvKM2rg5cPQEzl++ptL/HTEIr16/wfDJM1Dzj/KoXbUStuzeh5UbtqJXh9bIlS0L3ri9xYgpM3Dzzj3kyJxJ1dN3+dm+9yDWbd2JV25ulJ8RPTv+hdiOjrpx6F94eXujYbtuyJMjK4b3ddHPCvW1p/dXpIkXsFwols5WaWEsaeyDpz8Sk3bGyT7oRpaDXRTwi+X8Yx88/+CP8bViWNKslBEEBAFBwCIEgn7zWFQt4hRiopM2d3GjL9b+BCfLXNcTgXgJ3sHbs/8IKtZuCjZ1+FVEmT5Mm4O79x+heceesCGSElL5SDbiM+cvBWtPPD9/xox5S9CC2mJTkJDKlp37kDt7Fpw9sBW56Ue4e/vWqFWtUkibQasm9dG8YZ0Q1wtJhZD28St/FhIlSoCpY4YhfjynkEAQ6rI+ZMrTuc/gUNeXioLAj0Tg7fv3StvSokFtJIofHwtXrcWFb6SkQJ6cSJcqheo+O5mdVaANneK0QcSSIW0qdZ8/V3bwhs279981PRnSpkY+SmdJmiihKsd1o0ezAxMPLs8bRiyfPDzV/Wcye2MZOHay6r9CqeKIHj2aStP+7DtyHGOmzUbSxAnRulFdXCEN0/CJ07XsIO92trYolDcX8uYIamYXpPC3BDZHW3/+c6DXyfveuuIDKzui1mw3rDrzGeN2f0LnUg66PHMX7z9/JZM0b1Sb4Ybq9Fp3Lqh5H9cfsf0j+lWwrE1z/UmeICAICAL6CIR8xatfO4JfMwGyRMtTv2ZV5MudQ6HRY8BwLF29Hj1op00TXvBFjfpdDf/B/SMcYzrAmKkVm3GxtiQ0ZITbdSAtkr5JkrNTHKycPw0fSXPi0rG1NqRA776+vvDy8oa9veldNB5rz05tVD0uX7ZGIxw/fY60Q3l1bXl7+8DWNmCeTIj4Bz2WY2CThk8eHkieNImuTuaM6XTXfOFBP/6sITL8oX/P5hc0Pg2XNCmTB6rHN8HNgzGwJxMOYxoozjPUwBn2wfNjkhc7lvEdVB5DeH4WPMne39rGGrxoMRReNDHJZJM/Q+G5MFb6wp+JkkUL6iep68+fvyAaLcK0zyI/H/sYMXT3WgVz/XEZ/uzpP2s2jdtJu8/GxNTn39SzN9aGpAkCYUGgfImiytTs3OWr+OTpqZo6cOyE2oCpV70y5dmCtT3FC+VH2eJFdF3ly5kd/Hr45Ck2bN+tS+eLkoULIFXypFi/bRfSpUmFZvVqBco3dcP/Xq/fuoNMpCHv+ldz3Hv4GExsNLO1/aQVYokePbrKixUzJi5cvQ5f2lhjbbYxGdSjs7Fkk2nevl/xyStwtLgvPt/vT94jopIjOu689sWlpz5w87Bsg6tmrmgoQZqftPFtcIuI1J8z3ZT5Wv6U37/TmGB5kKYoa5Lvv5EmByoZgoAgIAiEAAEhOSEAy5KiychkjSP58II4c8EyaN+qCdiMabvrItq5e4lBIyeoXT1vWqS2bd4IrZvWV83yAq/fsDFEHP5TC9RKZE/u/zXgh+TFy9eoSpF8zuzfosryQjRf6Wq4fmqfuuc6A0eMV+3yD+ZfTRug01/NVN5++rEcOGKCIj6xaHGeJUM62NEP+NB+LuAF7tAxk7H30FEiD9ZImSwZxgzthxTJvpMQ1YjBHyYaCePFo4WtO46cOI0psxbSmOkH8P5DHN2xDguWrSYztGVEeGxhS+RuWH8XFKPFQoPWnXW7pQtXrMH8qWOxZuM25MiaGQ1rV1fYHDp2Sv14Vy5fGv1dOtKOpweate+hyMX79x8woFcXcN74qbNV+13atjA7Dx7f+Klz1K7tDVpI8OJ7xoTh5EwcsONqDh/9PtZt3oEJpBFjIuTs7IR5U8YEIWIGMCG0nwU2Les1eCQePnqCjzT/0sUKY9SgPohBBI2JY3/6nFy5flM5Pecncj16SD81rnsPHsHl73+UaYwtPePK5UrrhqR9Hu+cO6z7bDajXexNtFDjZz9r4khMI0ftcxevUFsOWDxzIlLSgs1cf4zPoyfPlIkNm9skpt3rRdPH4/K1m+jSd7DS/OUoVhGF8+fBzAkjcPTkWZOff/53YfjsdYOXC0EglAhYWwcYK/C/e30ZTEEF/rt0BQ3+rIos6dOBI5lpWhYuZ20d8NPI/25CIhrpMKwX5ZsvnA9tEBkTtbFjZMOCy/IGFG9CsEk0v+fKllm9+D68JBsRDH4Zk703vMC+NTMbBgRuaFPMHkXGvsbVIfFha21+DOx/o/ngpE9go4jS2Yc+0Cc5+296oTD5+ogIAoKAIBDeCER6c7XwAPTFq9d4QAvS3QcOYwXZbJcvXULX7BciEleO71Yajm79hmD8P3/j2M512L5mMdaSTfj2PQdU2bG0YLSmXbkTuzfg4FZXIg324J384IQJULd+QzFh+ABFMPZsWI6NtJO4fstOZQ7Re9BIzBg/HIe3ryEfmFHkFHte1+TYf2fBgzQTx3dtwMk9m/BH+VLo0ONvRQR0hfQuHtHu5V0iMguXuxKheYCCZBLBcol2FevWqIrD29Zg575DWL1+C7atXqjmOXnUILXwfvLsBVbOm0pmZvWI3DXExSM7dUSD2+BFwWqyUd+0Yh52kw8Jk0Ce/8Ur1/GFtFs7CK8F08aBF/KGEtw8rt64pczbTuzZiJaN62HM5JmqCTYfMYePfj+uG7dicN/u2LV+mVq033sYdBxcPqyfBdaAdeg1gHy7SuA4fRZO79usyMJQMmdhGU12/fHjOePAltX03NartMkz5yutTqfeA5XpH9fbuXYJbt+9r/LN/eHPW3PyKajfqjOKkEkOmxEWIe3cfHLYZjHVn9bm6XMXsIQI0UnCNlECMvsh8soaIx43L8j4OTPBYUduU59/U89e60PeBYHQIpCT/P1Y1pM/yyHa8HhHGyUsF65cQ3wnJ2TNmJ60I0H/LadImliV27pnvwokwFodSyRh/Hjqu/7M+Ys4cOyk8tH5QiZpaSi6G5MS9tlhDdDGHXt0zfHGCUdRu0LfU2u27MC6bTt1eXxROF9u9R3AFgHFC+ZXZcvQxocxjTSX5++QPv+MwSr6zgoveU4kRxMbWjUwZ6NudPLorR8qTHmDw7cDR0vbdvkLfL/xS/brOUUmcLmTBSZTV0gzlI40PSKCgCAgCIQ3AvRVJRJWBIaNnYImbbth4TJXDKWFsL4JV7uWjRV5OXj0JEoUKaD8ULg/dmRlLc723ftV97uJHHRr30pn1tae6jHRCU4OkolFsUL5kJOcV1nik5Zh0/J5KF28MA4fP636zJE14IeeF6FN6tbUNckEi03QNBOzpvVrKbO2u/ce6spoF/zD2aB1F7Tq0hsnzpynhe0kXUCEVCmS4Q/SPPGPLs+HfVl4Ic7CWpqSRQvhAGmUzAmPoRqFTG1MQQmWrFqHru1aKs0F++2wWUbLTr1Ie3ELjIuhBDePtKlT6p5J1YplFCHlNoLDR7+fmlUqgp/zqEnTUb5UMWShxZExCetngckyawJZy8LC5mhMYHt8MxXkwBEeZF7DxG7ijHngHeKDZM7C9Xgnugk5T7Nw1Kcu7Vqoa1N/GtX5U33eShTOr8xeGtSqpp5hcTK7efzsuapmqj+tzQplSiIBLezYHJOJGY/DmBw4csLk59/UszfWjqQJAiFBICd9/7C52XEiKYPGTMJpIh8sbJL2hD7jvYkMcCQyZ/o+1hcOAV2tQhncoo0CJgwjJk9X30P6ZYxd80aVC0Xs9PbxVSGoWWPEGzNMZGpUrqA2Qdj/pzz56uhLE/Vv0QbT5i/B6zdv1b97jUTUpHrN6Hv7BG1QdR80HGNoQ+wyaXJNiQ/1fY201jz28JCS6e2QMWFUFB//Gq2XvkPV6W4YXs0RdjbftTivP/njwhMf3H/znQzx+NkUrczEN6g9+y1K0Xv1HNFUhDb9cXHAAeeYshTRx0SuBQFBIHwQkO2TcMCRNSWaT45hc2GNjMbtWVlFUWcyMNHg3fH3es6uhv39qHvulzVQxiQ85sjtjhvWH2fOXcTWXftQvmZjsFaK/V/Y1G/3/sOk+aJdTnqtWjDN2DBMpumfj8GLf8YxpFKP/K7yk0Myj60JRS4aN+xvZYJn2M4P/yzQc2ANWjzahdYkatTQ/TNO/c2vic0KnZ3j6sLhMun46h+AEe8+m+vPSe/sEfbt+WpgFqSNMbh3U88+uHqSLwiYQ4BJx0CXTnChjQF/+kxrfnfsL1On2h+K1BuGgdba60FBUbq0bqb8zeLEjqU2q7S8FORXeGhjQMRJLU17r0TEvyJp893eviPfy5i6TSRuiyOxsb8h/7vSorJxvTzZs2LL0rlqk0nft01rsyUFWeEgCW9JExWHvhNNaXG4PP/7XTNvGr2HjwkYa25G13BUGpm35IsT3wghyZM8Ku4NTwj7b9HSeBw0RXWeDp+p84ZIEJutfbMe5GydrG8XmGDqMuRCEBAEBIEwIiDbJ2EE0NLqpSjUKGsO2OeB5TX5MMxfuppMxEqr+/K0C85mR2ySwMI+LeyPwuJEu4y8MD98/JS6X0yaDk1KFilEfjFnyNflqkriyG7VG7VWoaKL0w49+zmwyRfL85evsNQ1wMSJ71n7wn4mmv04a1B4EZAmdQrODpXwfNjUiUOmslwksxDWNJQi8wpzwuZsHXsOQHbSOrG/UKKE8XH+0lXsPXgUkwgX9lGaNHIQpV0JYsYXknkwv9FITnD46I+3Q48Bqh6Huq5asRyOnTqrnx2ia3OfBfaDYVK2mMLWsnAgCg5mwf4vLOVIi8S4FCqQB0VJg3eO8GC/I67HwSw46AULm8j8S75SYRVT/Rlrl3HV+CP7YjH50jQ75uZs6tkb60PSBIHQIMDBNDSCo9WPQY78pgiOVoY1lKzlYbIUEuFNIa7HhENfVOATXv0bESYuxgiOVpTb5E0FcwRHK8vzCk+fHW6XyY4xgqP1qU9wtDTtnQ8ONUZwtHx5FwQEAUHgRyAQui3gHzGSCN5m4oQJaJE+GD0HjggUeIAX6Cy9O7dVgQcKla+hCzzAjuYsHBlrUO+u5C8zQC2AK5QprtL5D595MnnUYLUQ5rCkvLhtTeZiWljmsaQd6UDkgdvgwAMF8wT40XDd3l3aqcADhSvU0AUemEH+E/rR2bhcSIRNlvhMnsr1WqidRF7sThwxUIU/NddOEgpxzCZu5Ws0VpGNHCkqGzvVs8PwAvIBqlSnmTLHqk8mVRouWnuhnUcScpQ3h4/WPr+XJfOSpu27K/zdKZLYTHLUD60E91mYMW64Cjwwe+FyXeCBIX26q+56d21HgQfGomiFmgobDlvLnyte+Ewb+4/yf+Jw31rgAY4CFRYx1V9wbfJ4OABGFfoclClRBFNGDzH5+WdyZOzZB9eH5AsCgoAgIAgIAoKAIGAKgShePuQNGAmEz8IJjXA0qvAWUyF0uR9zIaRZy8P+KcbCBrNjd7P2Lhg1uE8gh35t7MZCJGt5wYVe1sqF5J0XruwjYm5n0lh7TNK+fPEKEqaZ2+LIRYYER7+NsMzDHD5aH3wWEoeyZtMVS3ZTtXrm3s19FoILIe1LtvfGwn7zXDiENO/8hpdwCGlT/Znrg58JY6WPl6k5m3r25tqPCHm2NoF3+0M6p5dv3yBB3AAfuJDWlfKCgCAgCAgCgkBERSDSkBw+2JPPvQmJdG7b3KJzckLS5o8qyySHwwqP+3e28mX5Uf1Iu4KAIBC+CAjJCV88pTVBQBAQBAQBQYARiDQkJ6I/7h0UKY3Py6lasaxykI/o85X5CQIRBQEhORHlSco8BAFBQBAQBH4lBITk/EpPQ8YiCAgCkQ4BITmR7pHLhAUBQUAQEAR+AgISXe0ngCxdCAKCgCAgCEQeBPy1MIORZ8oyU0FAEBAEfjkEJLraL/dIZECCgCAgCAgCYUHgweMnuHg1IHQ+t1OsQD4VGTEsbVpalw8XbdmtD5JQRM1po4ZYWs3icjv2HVSRK8sEE5bf4galoCAgCAgCERQBITkR9MHKtAQBQUAQiKwIXLlxG//OXUwHgPqDtSqpUyT/aSTHjyIKelGUSA86gJSjTOpHOVy4ai0ePn6KIb26hvrRzKDQ8nyW1q9CcvZc98KMg5/UgZ9JYltjWDVHpE/wfWnx3yMfDNvqjtd0IGi6+DYYWtURKZ2CP3do2+UvmHnIA3ZRo6BoWlt0L+OgMNtK6VP3fwqC39KWcc2e4xOkgiQIAoJAhEfg+zdRhJ+qTFAQEAQEAUEgMiBQhc4f49ccOph4+bpNP3XKfAjopsWzYW1jE4jg8CAuXL6GN+/ehW08YYwMz+HgOUx/SMP7mxr0lWc+mN4wNhI5WmPeMQ90c/2A7Z2dVPEX7n5oNP8tlrSIg/wpbXHsrjfsLFh1eHh9Ra91H3CiTzzEsLVCx5XvVd0iaWxRLpMdCqW21Q1n/w0v7CaiZe6gUl1huRAEBIFIhYAFXzeRCg+ZrCAgCAgCgkAER4DPI5s8ZyFOnbuImA72qFquNOpWr6xmPXPRcly/fReF8+XGhu27ESumA9o1a4Tc2bMocjB1/mIcOXUWUeg/7Zwql7Yt1VlQ42fO0yGXiA5qnjCkv7o/ePwUFpEW58mzF0q705AOFmZp36whihbIi0YdXJCRDvYd1KMz7jx4iEFjJqNy2ZJoVKu6Ohtt4sz5OHzytNJIcT3WEGmyfe9BrNu6E6/c3JAjc0b07PgXYjs6atlB3vuNGI879x9g46JZgc6vClLQwgRNw8LFsySKitVnP+tqzj/qiU4lHRTB4UQmKZaIJx3f5+xgBcdoVkQUgcJEaq4/91H17WyiEFEKYHofv3zFnCMeWNs2riXNShlBQBCIZAhI4IFI9sBluoKAICAIRHYEBo+dgt0Hj6JEofyIFzcupi9chk079yhY3r7/oPx5Dhw7qYjO7fsPsWTNBpW3Zc9+bKVw/c3r1UKFUsXw9PkLFMqbC0kSJUA857ioULKoermRtublqzc6mBPFj4dSRQqSdifgQGOtXKKE8VUZbue121t17UOH/PI9H5rLsmDFGmzbewBZMqRDtkzpyQzuO4nYd+Q4xkybjaSJE6J1o7q4cvM2hk+cruqZ+pM/V3YUyZ/HYoLj5uGP9ec/B3qxyZi+nLjnDZc1HzBx7yeMqRlLl3XthS9SOltj9M6P6LH2Aw7e8tLlmbuIF9MKlbJGQ+05b7H50hfS1HxBrdzRg1SZe9RDpceKLkuZIOBIgiAgCEA0OfIhEAQEAUFAEIg0CDBJOHPhkiIN3UkD4/7xE6o1bQPWtlSvWE6Hw5CeXZAoQXxcuHIN12/dUenvKagAS5aM6eFIGh6WgnlyqnJ83YzIDwtrgPQlA2lp+MXprP3RynEZfa2Mfh3t+tS5C7CxtiYtTxfYx4iOzTv36czg9h89oYpFjx4d9x4+Jq1TTFyggAu+fn6qjtaG/nv9P6vo3wZ7TW5N+ETmY/pi66t/B1iRYoX9cR6/81MalzzJo6oCbz76YdkpT/SvGFNpZHqvd4eDnRXypgjID9zK9zvW0Nx/44cq2aJhz7UveOHuj3ee/ogT4zuZYWXWouOeyqTte025EgQEAUHgOwJCcr5jIVeCgCAgCAgCEQgBa+uARbEfr9S/iR8RACYWtlEDFto2pF3h4ADe3j5aEfWuBQyIZmcHXwomwFKjUjm4bt6Gdr0GMDtRmqCcWTOrPEv+sJ+OYT9cj/vS+jBsx9rKCtZEcuzsgpp6eXl5q7pWVJ/byJUts3rxfXgJa1WaFoxhtrkCqWzBLzcKLpB/9GtUyBwNXC8tBRqokTM6sicNwJrb2XThc7AkhzVCxdPZonGBGGhROAY4CEGvde5Yp2eWxr5AiWNbwd4u/OZqdpKSKQgIAr8dAkJyfrtHJgMWBAQBQUAQsASBnFkyYQk2YD35rLD5V/ZMGRAndixkSp8Wl67fxMoNW3DvwSMVhY3NzoIT1vbYWNtg7MA+cIobB2yGFpWIi6WSIkli/HfpChGl7UiZLCmSkplbYgo1nSZlctylcXD6ibPnAjXHpmU3797H9AVLVX+fKGobR1djYb8h1kr5+PigbPEieO/ujngU+MCKiJEpWbRqHe4/+l975wFf4/398Q8ykEQQe6vV2rtixN6jpWoTNWpHimqpWLW3v11i770ptVftH2LUpmoHkUQm/ud847lukrtyXYSc01fu89zvft5X733Oc8b3Xwzp622sicXlHDuz40IYvi2aVPUJjXyNl69IgXyDpFJeRywiS07lfI5gffPYzXB8lSE6rzE7gnCJ4m3meqaKNu+9gLeKKWdY43H15dx/ESpbm36ZnAsBISAE9AlE/7bRr5FzISAEhIAQEAKfMAG2svDN/74jx9Rf/55dKJbGA8N+7YVBYybhj4XL1J4zDevUQAsK8jcneXPlBCct8PYZppqyG1l+ipWZMPQ3i5Sdrj+0Qv8R45TCwgN0adsS7D72ff06mD5/scoG1/K7BjhPKbA1qV21EnYf/Btrt/yJrJky4otsWRHxxrLUqG5NsAvd2q1/Yse+g2Crk2fTRhS7k0/rHut46eo1cJwRp9c2pQzF6miggPUOjrOZuCuIXMkS4erDlxjV0BVajMz3JZLhPCkwFcY9Ije1RMiaKgk83aNbhU7fDoff3UhSYqAUIZ6mWyUndFn6DHWm+CO1U2LcDXiJSd+/jfXhNqwEpXE2n4qa24oIASGQMAkkCougRzEiQkAICAEh8FEIONiZjk8wt6gHTx4jfeo05pol6Hres+YV3ZFzJjV94XJHUgxYWbFEhk2cppICeFMsDys723fvB2/OOXmYD+LitvaUkhs4ONhTjM3bG37NjY3LDQlvMprK1XDWNHa/44QJXG9OcWHlhpUkR4fY7m+G5rWkjONjeB+ctJQRzZCnXPjL1wgjb0CXpLFdy1i5iaD6pGStiSkhdHvC1iH9WJyYbeS9EBACQsAYAbHkGCMj5UJACAgBIfBZENBXJvQvyFi5fhv9c46b4RTPS2nvHY6BOXnGD+wSV9CE5US/v3bOLnMxxZhyo7UzpuBwPa/F7Y0Lm9be2JGVIFsqOFHzw+Q+NQ5JEsHBiB7JbmxJOHOBAUnmkAj8JyIEhIAQsIaAWHKsoSZ9hIAQEAI2IiCWHBuB/ADDcNay/eT69u/de3AmK0yObFlQvFABpWR8gOllCiEgBISAEIgDAVFy4gBLmgoBISAEbE1AlBxbE5XxhIAQEAJCQAhQevuEAmHyrLnIXdwj2h+XiXwcAuzPzsL+4dYI+6Cb21/CmnH1+9h6Dv00tvrzaOe2nk8bV45CQAgIASEgBISAEEhoBBKMJYcVHEPSo1Nb9KQgUmtlzsLlCAgMpM3QEiFL5oyoVbVSrOBWa8cuWqE2dm1YqlKVWjsG9zt++izu0g7a5cuUwq59h9CkYdw2g+PN8mZTFiIWTpeaL08uVKedvc0FuKoOMV54J++WP/ZEUFAw/pg0CjMoLWph8mnv8WPbGC1Nv+3/+xgVLDy0f2/TDd+h1tI5OAXttr/2oluHNrFmO3jkuAoILl64AGo38cTOtUuQIX3aWO24wNL5DHaWwk+WgFhyPtmPThYuBISAEBAC8ZhAgrHkGPsMpsyaH826o2/tscTSs3jlWlIgHoA3mNu5+wBqNW6Dh4/9jU33wcsf+z/FhKl/4NqN22jbrQ/s4rCng7bYwKAgzPBdpCwnL0JCMH3OQvxAY1ljhdlEu3XzDf+JPZtRvEhB/NSlA75rUFubyuJj+9bN0LbF9xa3t6ahpXNkor0u5i5egcPHTkabhi0zQyhNLR8zUpspo4ciXVq3aG303+jPx/te9PhlkH61nAsBISAEhIAQEAJCQAhYSECyq5kAxQqQJVaeZo3qo1TxImqk3gOGYdGKtejdraNuZL5htX+zuzYX8qZ0KVycDQarshsXW0usUUZ4XGdKkco7ZGuSxi0VlvlORSBZTnp166AVRztyxiDeOdvJ6W0602gN6A1n7+nT/UdVzO2rNWxJN/WnyDpUUteUU6BqGYL4xp4tQK4pXHT1fBIUHIxsWTLryvJ/mUd3zifBwS+UhShZsqjN5bRK3gvCmdanceHN82KKuetgBk7Jkxm0QHFdzPSyMefg62MlL2WMNK68NwVbx/hzL0sb92ly8O/jxD0IdapXUp9JpfJltCp1NHVN7Nq2naxDhsTQWg21kzIhIATeH4FX9B3HFnwRISAEhIAQiJ8ERMmx8eeSlVzWnjx9Br4hzl+mKrq0bw12adu6cj7tr/AAA0eMR1h4ONWHoxNtBNehTTO1Ar657zd0tLIG8M187eqV8ep1VA0aDg4AACGvSURBVLzK/QePUL95OxzfvUm1ZUWhVJUGuHh0l3rPFgSf4ePUuHwD3LFNc3Tv6Knqdh84THXj1U22K92cF6CN6xwdHTCkXy+EhIRiyOhJ+Is2kbOzS0I7cGfF6CH9kD3rWyVEDRLjhRWNDGnTkrL2HAco09DkmfNIAUmGq7TB3MFta5RVY8bcxWqTPQdS7ob274UK7qXRvEMP/O/cBTXavKWr4DtlDFat34IitGFfi8bfKDb7Dh0FZzCqW6MK+vfqppQizy69lXLxjPaBGPCzl6obN2WWGt+r0w8mr4PXN27KH2qH8EuXr9KGc68wffwwlCxa2Cwf/TnWbNyG8WQRY0UoTRo3zJk8GvqKWMvvG6I6KX7sjpc5YwY19qLla9GcNhhkBVf793D11H6z18Tue16/DlIWoCIVainFacb44TD1Wcb4iOStEBAC75HAMXIBHjh6Ir6rVxMdW0V9h7/H6WRoISAEhIAQsIKAKDlWQIvZ5f7DR7h5+w4uX7uOpas3YMLwgbomoaRI+B3eAW7j3W+wikNhN61H/k/QupM32NWpDik0Y+imPQltSHdkxzp1UzyNXMJevAjRjWPshBUg735DaNyRKEqpTNlVrgUpE5kypMfXJYui78ARpEyMJUXiK9x78FApGhXLfq2GG/N/MxFMlonDf65TFpiFy9ega+/fsHH53GjWIG3u23f+Q0REJPYfPkoKzU2UKVkMF/65grPnL2LSyEEUj1QR23ftw4q1m7BlxTxyzUqDM34X0MHrF6xbPBvL5kzBOFIUeOM97y7t1bCs5LCwErBi3WYc/WuDsmSNJR58/Wf8LiKUrFvbVi3ARZrrL4opiimmroPbnr90GfOnT1BWp5nzlmD0pBlYNX+GUkhM8dGfZ+X6zRj060+oWcUD/Nlcv3UbBb7Mq2uSJVMGVCz3NZau2oCfvTrh3//u4uDR4xg2oI+ujXZi7prY4nNs10YUKlsDZw5sV91YebJ0rdo8chQCQuD9EAgLC0M4WeiDLfiOfj8rMDzqLf+XGLL5Oa7TsVAmO3Su6IQCGe11jR8GvsJv65/j/L0IuDklRp/qzqiY11HV77oUhvE7g9TGnE1KJkPH8m83TuVxf14TgMfBr1Aimz2Gf5MCDnZRVqy9l8MwdU8wnr54BY88juhR2QmpaWwRISAEhMDHJiDfRDb4BIaOmawUlnmLV2II3Qjru3B1btdKKS97D/6tboJZwWFJ65ZaWXG27tit3u8g5YBv/DW3ti7Uz9np7Y+MamTgZe+hI2QlKaUUHK5OR1aGDUvmoIpHWVJGjqk5WcFhyZg+HVo3aaTO+WXrzj3KBU1zMWvT7Dvl1nbt+i1dG+2E3c+ad/BCe6++OHL8NBbOmKhLiJAze1alqHEiAr4eji1hBYeFrTSVyrtjD1mUTAmvoUHt6mhFSQlY2erZuR2Sk2sZ82LLTrvuP8Pv4mUwl5hi7jpyf5FD95nUr1VVKaQ8hjk++vM0qlcL/DmPpB3Pa1SuEE3B0doxvxXrNimL2qIV6yg5QwUdB60NHy25Jv32fB6XtcbsK++FgBCwLYEKlMRl61JfeP/4g20H1huNv3P5YVhcZO7hYHQhxWbPT2lQPX9SDNwYqOtOw6HJ7Ccol8sB+/ukxdTmKZHUPkpRefD8FfquDYBvm5TY1I1+Q86EgpUeTdrMewqvKs7Y5Z0GTo6JMOrPIFUVHvkaK0+EYEozV2zt4UaW8teYf+SF1k2OQkAICIGPSkAsOTbAP33cMF1MTszh3FKnilkU5/eJaTdofmrIP3ocG/Ps2fM4j/GuHXjeQ9vXGBzGFtfIA48d2h/HT53B5j93oUajVti5bomKf2FXvx2792M1uYyx29jyuVMNrsNYYWq9ncA5foY5xlWaUtxV6RJF1dpad/amtf6mXPD0x+F4nDSkvLJ1avWGLZhNLm2GJFnSpMp98V2uydC4UiYEhMBbArMpGci5i/+gNz08Gj/DF5euXENnzxZoVLemShQzizJG7iWrNIsHKS1d27VWMTahoWGY4rsAB46eQCL6T4tV7EVZOC9dvY6tu/aqPvxStYI72rdoont/iFyHF1AyGra8FsiXF73oYU2GdGmVhd3bZxjqkdX+1NnzuHz9BiqXK4MeHTyVZVs3gN7J4tXr4UtuvXMmjkTuHNn1aoyfDqmfQlfZoHBS9FkdgPCXr+GQJBH2XQlDhhSJ0bZsVOxl9tRJwH8sa06HoHmp5MjoGvXemxSaFaS8VP3SEWfvRJBlJhHK53ZQbXtVc0HFcY8wsK6LsuZMb5FSlfPL9yWSoR9ZinpVc9aVyYkQEAJC4GMREEvOByJfmX4M+Wn8qTN+akZ+Que7aAXqUOwJSw1y9ZpEP8ScpICFY1o49obFjW6c+cac3cRYFpClQ5NK5dwpLuY4xbqcV0XsrvZNyw4qVbRH2dLgGBd2j2Jhd7VF9AOsCbvJcZwJu4qxsAWFY05yfWHZD6o2jv6Rr8d30XI8fPRYFbO72t6DR1C5Qln9ZrHO79y9j259BqAwWZ04XihjhnQ4TTcDf+09iInEhWOUJo4YSGV+sdz44nIdrN9oSo45PvqL7Np7gOrHqa7r16qOQ3QDZEjYmjNiwlSVTrxE0UKGmlh0TRzLZG9vp7M6xWWtBieVQiGQwAg8CwhQrqqsXHAc4je1qukssBNnzcMKehBRg6ytDWpWxapN27B0zUZFaNPO3dhMVu62Tb9DTbLassLiTq65mcm1OF/unKhJ6fNLFyusyp/qPXDyI7fYAaMmqCQuDWpWA7/vTi7KbInmPx5n7rLV4LjN9GTpXr9tp1qfsY8lf97cKEXfIWlTpzbWxGT5qdsRyJPOTik43PDCvUgUzWIP30Mv0H35M6w6GYLQiKgHPrf8I5E3vR22+oViyp4g5KHz208i1fg3n7xUddceRcJrRQBcyJLDvcLIihNT2HWt7BdRylDMOnkvBISAEPjQBMSS84GIc4zMxBGD0MdneLTEA3yDztK3RyeVeMC9RkOVRYxv6tldi4WzpQ3s25PiZQaoAPqaVT1UOb/wniscD8NZ3YIoeUEo+Yp3IHcxLS3zGLKOdCXlgcfgxANlShTT9e3r1VklHihbs6Eu8cB0CnDXz86ma2zhCcfl8J48dZv+oEs8MGG4DzhmxZTwDQS7uNVo2ApJ6YYkBWVlK00Z6zhRwNwlK1H7e0+Vra3Zdw10XLTxrL0OThBgio82Ph+r0Y1Nmy4/Kf7PKYvdjAkj9Kt15w3pKTEnLGBlx5iwRcjcNbHrHyeQqEccq1Ysh8mjBlu8VmPzSrkQSGgEWLmoQ99J+skBOCvaPnpglMLZWWU/pCSQ6jv35NlzaEUJUDjrIQvH3HEWTJYy9P8su/vyXylKWnKL4hPXbd2h6rSXg/Tgg9Pqe9F+WSWKFFLf82s2b1dxi2zhZalCrrs9O7bFPkqIwokLLlAylCKUaMSQ8Bj8Z408C3mF3mTFmdTEVdf9cRBlbDxPyWbI2lP1SxdM3hWEuwEv0ZOsNuGkz9jTI88nFFfziOJ27MmgExal41Dda3qfCC/CX+MetSfDEOyoLfdx1LuDOEMWnzWnQ7Ghi3VKmW6hciIEhIAQsBGBBL8ZqDmOnA3L1mJtCmm28vCPNrs7xZS79x/As0svjBz0iy5zmH4bU2mHzaVe1h/H0nO2lhhKIW2uPytp7C4SM00zj8UJCzTFz9A473Idpvhoc/FeSHwDlCqlq8E01Fo7S4+WXhMrPPobr1qyVkvXIO0+PgHZDPT9fAZjp/2hLDKLpo1HtsyZdJPwd2g9snZzHCArHZpkIgWmyTd18Zis7M27eCMy8iWbfcHxNz69e6iEKFpbVnLadO+D+jWqok/XDqp48uz5WLvlT0wdORiFvsqHmQuWYhnF6I0f3F8lmGneqSdqUeKSfl5dcIzccn8eOoqUr6akWH2rDWuTY1DYa7T0fYK27snRsFjUgzIeeOmxF7j8MBKD60W5tN0mC43n/KfY0ysNxu4IQqrkidDhTbKB4zfDMWl3MJa0S4Uj18Pxx4FgzPOMcr2OfAUUHvoAFwan16338oNIdFj0FLNbp0I+sgKJCAEhIATiAwF6HpMwpEentnG+UGv6WDIJ7x3DMS6GhBUYbS+YmPWclMCQgqO146xe/YaM1t5GO8bcA0a/kufT/M71y9/lnK8v5h45lozHMTMxFRzux09UTSk43OZdrsMUHx6bhbPfcfyRvsIRVWPdq6XXFHM+S9Zq3YqklxD4/AnwwxJ2N+OHTWnIFYwVnRxZs6CaRzl18RynY5fEDhOG9MeCqePg06t7NAXHGCH3ksVVFccCbdi+Ezv2HqB9uZKjUP58xrqYLD984hS6/jJQbUlgsqFepT9ZaxrP8scPZZ2iKTjcxJ3cyLacC0NgaJSbGSsy2d7E5NSj+J1lx0PwhLKnseVm9sEXqFco6mFayewO8LsbiYv3o0w78yi5QRWK1dGE3eJEwdFoyFEICIH4RCDBPHLhTT0t2dgzPn04cVnLGdp/hvfLGT7g57h0k7ZCQAgIgQRH4Fdy1eVb/QUr16iYRDdKTsIus5ykJG+unOBNmTmWh4WVovy0v9gESjbCGzUbE1ac2BVtHsXdTKC0+lkzZcTIAX3h6GBdjMrtO3dVooOAwEC1LmPz6pe3IAvO1UcvyTITiBHbojKrtSuXHJ09nJAzjR1+q+2CqhMfU4KBxGCLz/y2UdaZrzLY4duiSVF+7CPKnpYYpbLbo3HxKCsQu66Nb5wCjWb6I32KJMpVbUm7KJc0f1KKGlK5a1JKaEBWoZdk5WGZ1twVpXJYd91RI8irEBACQuDdCSQYd7V3RyUjCAEhIARsT0Dc1WzP1NIR2XUtkFxh2QVVk2GUJp6TBHjTgzFWdrZTZsdtlFFt8jAfFKWU+OaEXXXZpVSL5zHX3lQ9z2/Kem+qr7E6Wp7a08bQXjacTIBjcVIkje1pQNmhVT/eX0dECAgBIfApEDD+WOpTWL2sUQgIASEgBISAlQTYSqOv4PAwHNt39eYtyra2QbkVn6SMmEUpOUBBirOxRNhV1xYKDs9lawWHx2RPaUMKDtc50gaf+skEuEwT2slAbSCqvZejEBACQiC+ExBLTnz/hGR9QkAIfNYExJITvz5etu7sp+xn/969B2eKqcmRLQuKFypgNI4yfq1eViMEhIAQEAIaAVFyNBJyFAJCQAh8BAKi5HwE6DKlEBACQkAIfPYExLn2s/+I5QKFgBAQAkJACAgBISAEhEDCIiBKTsL6vOVqhYAQEAJCQAgIASEgBITAZ09AlJzP/iOWCxQCQkAICAEhIASEgBAQAgmLgCg5CevzlqsVAkJACAgBGxB4xbmYRYSAEBACQiDeEhAlJ95+NLIwISAEhIAQiI8Ejp0+izrN22H24uXxcXnxZk0BoUFYe24fXkSE4pr/f9h28Ui8Wdv7WsjDoKcYtnO+RcMnRD4WgZFGQsBGBETJsRFIGUYICAEhIAQSBoGwsDCER0Qg+EVIwrhgK6/y/vMn8Fo3Ec9CgnDoxjkM3Tkv1kje6yej5h8/xSr/VAuCwkKw++pJi5ZvCR+LBpJGQkAIGCQgm4EaxCKFQkAICAEhIAQME6hQphS2LvVFUkdHww0+w9LX5J73+MlTpHVLbfHVuSZzUm1dkzqDz/moLxEvI3H+wQ1kTOGGK4/vIE+aLPrVn+Q5b7ZqqZjjY+k40k4ICAHDBETJMcxFSoWAEBACQuATJjB78Qqcu/gPendpj/EzfHHpyjV09myBRnVr4iVt+Dlr4TLsPXxUXaEHKS1d27VGYrpDDQ0NwxTfBThw9AQS0X9OTslVm16d2uHS1evYumuvjkrVCu5o36KJ7v2hYyexYOVa/HfvPgrky4tendshQ7q0ePjYH94+w1CvemWcOnsel6/fQOVyZdCjgyfskiTR9Td0MmP+ElyktZctVRzrtu6Aq4szXUdLFC9cADdu38GiVetw9sIlvHr1Cqx8tWnSCG6pUqLv0NFwS50S5y78g+xZMyMF9fuf30UM+bkn8ubKiacBzzFxpi9O+11AmtSp0Lh+bdStVtnQElTZ4tXr4bt0FeZMHIncObIbbadfkdY5FVImc4aTQ1JkcHFDhhTRFaT91/+Hopny4Mt02bD5wiH85NFU150tQL9UaYXJB1bh8M1z1D81VnsOV/XPQ4Phs302zt27DrvEiVEpd3H0q9pafV73A/3Rd/N0XCWlKR3NP7D6DyieJR8iX71E4wW/YXHLQXB2SKbGOXr7AraSC92Qmu3V++2X/sbUQ2vo30FilMmWH53KNoRb8hSqztR6dl85idF7Fqt2xTPnU0ftJTg8FP23zsTFBzeR2TUtmherjhr5Sqtqc3y0MeQoBISAdQTEXc06btJLCAgBISAE4jGBZwEBOH/pslIuHB0d8E2taijwZV614omz5mHFhi2oUakCGtSsilWbtmHpmo2qbtPO3di8cw/aNv0ONStXUAqLe8liyJwxPfLlzomalcqjdLHCqvzps+c6An4014BRExAWFk5jVgO/795vMCJJoeI/VnzmLluNrJkzIn3aNFi/badan24AIydPngXgzPmL2HPob6XoXLlxCwtJsYmS13hGykqTBnVQpby7GnMDjcvy8PFjbN+9Xyk8B0lhu0kK0d37D7D74BGwVcbrtyFKwfmhWWOltIydNlutOWrc2K/58+ZGqaKFkDZ1dEUldsu3JUlIWWhYqKIqyJYyPUpnK/C2ks62XDiM6nlLoTrd9PO5vtwjZaXT6jGole9r7O82HctbD9VVN1s8CEUy5cauLpOx/ceJKJ+zsFJwuEGLxYPVmAe7zyTFpw3aLh+OR8HPSBlKgsIZc2P9uf26cRYc34oqpCCxnPj3En6nWJp5TftjY7vRZF1KA9+jm3Rtja3n9tMH+HnzNExt1Bt/0lrK5Ih+jZ3pGr5Ml12tc/K33koZCgqPcnM0x0c3uZwIASFgFQFRcqzCJp2EgBAQAkIgvhNg5aJO1YoYO/BXdCNLTT6yYHBWtH1kwUnh7IzAoCA88n8CZ7LWnDx7Tl0OKw0srBCxxYOlTImiyJg+Hd3kF4YnKT8N69RQ5fovrEiwNcWrQxt0atMctap4qLEv/HNF14wVkZ4d26JV429V2YXLV3V15k4G9/FSfXOQVebim345s2VF6++/VZaiuw8eKqsQK0OaZM6QHi2+a6De+vTuoY7+5HJ27eZt3L5zV1lwbt35D4mTJFaKz8mzflrXWMcSRQph7KB+cE3hEqvOVMHvtTqqanZJ60qWEU3YsvLXlRNwcUwO/+AAcBA+JyfQlzYla6NKnhLKwsZKCgsrFU9fPEe70vWUYsPWN48viqq6W0/v4wnVtSxeU/X5mqwxhTJ+gb9vnVf1nqVqY8mpHercn9qxdcUjV1TfP/85ijxps2ALWXbmk/ITGhmOTecPqbbai6H1HLxxRilKmqtdoQy5tOYIDHuh5rZPYoeFJ7apJAxuyV2x859jujbG+OgayIkQEAJWExB3NavRSUchIASEgBCI7wRqVvaItkRWRCIiI+HgYI9EbwIoqlcsj0ykxLA0rF0dKzduQeefB4Du/FHRvTSKFswfbQxDb8LCw1Wxg4ND1NHeXh3DwyN0zbV4jWRvYnnYbc5S0dbKcUCRtH6WlRu3YtrcRahXowqqViiLy9duICAw0OyQ2lrZLYvHTZY0qVLc8uTMYbavrRocuH4GaZxcsfH8QTVk1pTplMtazwpv3f9ypMoYa7pgsoIks08aq5wLQiLCkJzqWPHRxIlc07icJZdbZqRK5oL//XcFh2/5oWmxajoLECs1TvbJlHsdt2U3O3aB0xdD63mtGrydT789xxyx8FiaktaieHVlUdJvJ+dCQAi8HwIJxpIzedZc5C7uEe2Py+KrvKQf4g8pH3q+D3ltMpcQEAJCQCPAMTDsbhbwPJAsGamVm1eOrFlQzaOcasJxOnb05H3CkP5YMHUcfHp1h72d+eeB7iWj3J44FmjD9p3YsfcAnJInR6H80WM0tHXY4nj63HkkppiUsjQ3X09gcLBFw36Z+wukSumKh/7++CpPLhUflCVjBrBbnjE5fOIUuv4yEE+ePjPWJE7lHIPTmSw7I+t2Vn+Da7QnJSe6y5qhAb9Mn50sJMHYe/WUrvoCWWRY8lFsTwgpKwdvnFXv7z33V+fu2Quq9/zC1pxlp3dio98BNC1aVVdeKVcxnLl3VcXLfFvQA/ynWXl0jQycsLvdvmunlSWKq/3uX9e1Sk3xPHnTZkNYZIQaj8esRu2/cMukayMnQkAIvD8C5r+539/cH3TkKbPmx5pPK+tJAaXWypyFy3VPzlK5pkA18tfOliWztcOpfnf+u4faTTyxc+0SZEif9p3GMtaZny7mL1MVV0/th7n55i1Zqfy5h/TrZWw4o+Xv0tfooFIhBISAEHgHAr96dQY/gV+wcg34u5AD9TnmJjUd2UUtJDRUxfLwFKwU5c+XBxOG/mZS2WHFiV3R5lHczQSKocmaKSNGDugLxzeWnXdYrtGunEThFCk6/UeMo0QHFMCfOxclI/jXaHutIgld0/8NH4hhE6Zi1P/NVC58uXNmR8WyXxvNnsbubZx4gS1FzOldRLmqXT6OAdXb6oYplCkXpZoOxHX/uyaVAE4GsazVEHitn4QJ+1fQO1BCAzdM/MZLWXGWUGIBjoNxcXTCw6AnGFe/O9hKpAkrGcN2LkAJSkbAVh1NquYpiZtP7qHStO7IS8pSAKW9ZqsLJwowJZzc4IfSdVFvTl+kd0mFYpnzRms+t2k/dFkzFnOPbUYmivNhhWdus/665AfRGssbISAEbEogUVhEeJS11abDxr/B2IoTV+nRqS3MKUCV6jVBqeJFkSlDOvxDPwCHKbvO6vkzkZcCVK0VtqocOHwMHmVLq6d01o5jqp++kmNuvndRVN6lr6n1S50Q+FwIONhFuTVZez0PnjxG+tRprO2eoPtxzE5gYJCyamgghk2cppIEeNPDL1Z2OHh/2669mDzMxyK3NQ7qDwwKVtnMtDFNHTlGaPeB2BYMVryKFYoexG5oHL6GFyEhKsbIUL25Mu776tVrFZdkri3zYNe2+CIc88JuYMnsY6fyfkoKk74SE5c1P6INPd2cUkZzezPXn13TWHkztBbuy8kG+N8GxyCJCAEh8GEIJBhLjjU42dJjTsnhcZt8W5cUnSJqik4/9cNWys6TN3d73ZT8w8DuDnZGXB7YzcDZ2QlJyO2AhY+VypfR9ddOuB2nAdV8s7VyPrKiEkI/Vs5OUfsS6NeZm9/YfPxD7ULrMiTmxjTVl/3B2S8+Pv1YGrpGKRMCQuDzJsBWGnbb0heOd7l68xZlW9ugvmtPnvFD0QJfoeBXlrmd8fczf09bKi9pvtFTZ8VqXqJwQYuUHL4GTqJgrSRPFpVO2ZL+8e0725TCYK2Cwxw4tXNchZML8J8x0dJWG6uXciEgBGxPwPj/kbaf67MfkW/s//3vLr59k3knOPgF+tFeBWzd4ew9tWmPhCWr1mPPxuW0f0EqVe4zfBz4pp/7dqSMPN07eir3Cc2VjKEd/PsEBo4Yr9qFU9tObVuiQ5tmimdjzy7045sXu/cfVr7S1Snl6YThPurH2dT8Lno/ivpWHR6Unyr6DB+vlC1XcsFjNwhOwcpiaky+JlN9n9MT0/7Ew4/2ruCdwkuTYjhqcD+jipSaUF6EgBAQAh+QwACKwdl/5Bj+vXsPzhRTU59STBcni4qhh0u2WJY9JSjYuXKhLYaSMYSAEBACQkCPgCg5ejCsPfX6ZZBSAvyfPEM9+kGsUjEqgHXMlFlg3+cjO9aBf8imzVmIF3Rzz3L/wSN49xuCPyaNRFH6AeXN4lp06EFub+nVGNpaeF8Db9pr4Y9Jo1C8SEGVkrR1J29kIv/xOqQ0sVyndKB/rV+qXBbqNGmLQ6QUlXcvBVPza+PHPPJeDn0HjoDvlLEoUvAr3KO0pM1pXeyrzWJqTHN9R02ajnS0P8SeMUNVdiC+/km0SZ/Pz14xlyHvhYAQEAIfhQBbRjjVs4gQEAJCQAh82gQSTHa19/kx+fTtCffSJchF7QtwcL4WaLpj1z54027brOCwdGnXSudOtvfQEVQgRYQVHJZ0adywYckcVPEoq95rL3sOHEHFcl8rBYfL0rqlVlacrTt2a03QnPZB4HSoKcnqwmPe/PeOqjM1v65zjJP9FAvE87GCw8J7Q7SmHbQ1MTWmub679h0iC84LjKFA1wnT5yARueXtpY3pRISAEBACQkAICAEhIASEgC0JiCXHBjRZ8fi9f2+07dYb/X8fg3G//2aDUS0fQj/TDe+hwPEu8VF474IylKI0rZubbnn29vJPUAdDToSAEBACQkAICAEhIARsQkAsOTbBSGlGKanAtLHDcMbvAqb7RvlX16CdttkdKyIiQs0yY+5iBL3Zx6BSOXccOHIc/6P0nyzsrvZNyw5ga4e+VK7gDraQnKLgVxbendt30QrUoc3fDAlnb+E/FlPzG+rLZZzRbd+ho3QdF1UTdldbtHKtrrmpMc315Xih02fPw/3rEsqd7hTtrn2AfN9FhIAQEAJCQAgIASEgBISALQnIY3Qb0nRN4YLZk0ejsWdn5MyWFX17dFKJB9xrNNQlHkiePCqTDe9/M2nkIPQeMEyXeKBD62b4rkFtlXhAWxbH6EwcMQh9fIZHSzygxeNo7QwdTc1vqD2XZaYN4cYM7Y+ufQboEg+UKfF2gzhTY5rt27MzJR4Yg/I1G6lscPnIvY+vTUQICAEhIASEgBAQAkJACNiSgOyTY4Ymb5b5rmIu3XLMFNLG5jOVQtpYHy43N7+xvqbSQJsb01RfziYXGREJJ8o4JyIEEjoB2Scnof8LkOsXAkJACAiB90Egwbir8caecRVr+hiag/cWMLZHDrdnCxDvVWNOuJ01aUzNzW9sXmN75HB7c2Oa6suJGUTBMUZdyoWAEBACQkAICAEhIATelUCCseS8KyjpLwSEgBB4HwTEkvM+qMqYQkAICAEhkNAJmDcfJHRCcv1CQAgIASEgBISAEBACQkAIfFIERMn5pD4uWawQEAJCQAgIASEgBISAEBAC5giIkmOOkNQLASEgBOIxgUTxeG2yNCEgBISAEBACH4uAKDkfi7zMKwSEgBCwAYEkSewQ+fKlDUaSIYSAEBACQkAIfD4ERMn5fD5LuRIhIAQSIAEHe3uERYQnwCuXSxYCQkAICAEhYJyAKDnG2UiNEBACQiDeE0jq4IjQsNB4v05ZoBAQAkJACAiBD0lAlJwPSVvmEgJCQAjYmIC9nR0c7B0Q+CLIxiPLcEJACAgBISAEPl0CouR8up+drFwICAEhoAi4JHfCy5evRNGRfw9CQAgIASEgBN4QECVH/ikIASEgBD4DAildUtBVJIJ/wFMEh4ZIMoLP4DOVSxACQkAICAHrCSSigNXX1neXnkJACAgBIfAuBBzs7N+le6y+EZGRCA0PQ3hEBFl3IiFf8LEQSYEQEAJCQAgkAAL/D8DemIVoU4D7AAAAAElFTkSuQmCC;imageBorder=default;" parent="WIyWlLk6GJQsqaUBKTNV-1" vertex="1">
          <mxGeometry x="19" y="576" width="752.38" height="259" as="geometry" />
        </mxCell>
        <UserObject label="&lt;div style=&quot;font-size: 10px;&quot;&gt;&lt;div style=&quot;font-size: 10px;&quot;&gt;&lt;br&gt;&lt;/div&gt;&lt;/div&gt;" tags="Background" id="EGExN0bpBv-DuqMnGYsy-1">
          <mxCell style="verticalAlign=middle;align=left;overflow=width;vsdxID=26;fillColor=none;gradientColor=none;shape=stencil(UzV2Ls5ILEhVNTIoLinKz04tz0wpyVA1dlE1MsrMy0gtyiwBslSNXVWNndPyi1LTi/JL81Ig/IJEkEoQKze/DGRCBUSfAUiHkUElMs8NojAnMw9JoYWhnoURsYoNDVDNNSVBLYyPVTHZSlEUAhmI8EjLzMmBBCdcHldgkRQGmIpJCQVT3A5GcyyQgR7ZQCFIQjF2BQA=);strokeColor=#0b60ea;spacingTop=-3;spacingBottom=-3;spacingLeft=-3;spacingRight=-3;points=[];labelBackgroundColor=none;rounded=0;html=1;whiteSpace=wrap;fontSize=10;strokeWidth=2;" vertex="1" parent="WIyWlLk6GJQsqaUBKTNV-1">
            <mxGeometry x="384" y="649" width="322" height="139" as="geometry" />
          </mxCell>
        </UserObject>
        <mxCell id="EGExN0bpBv-DuqMnGYsy-2" value="Exemplo" style="text;html=1;align=center;verticalAlign=middle;resizable=0;points=[];autosize=1;strokeColor=none;fillColor=none;fontStyle=1;fontSize=18;labelBackgroundColor=none;labelBorderColor=none;textShadow=1;" vertex="1" parent="WIyWlLk6GJQsqaUBKTNV-1">
          <mxGeometry x="372" y="542" width="88" height="34" as="geometry" />
        </mxCell>
        <mxCell id="rG_FSMGZuGiEe-wdEeD1-1" value="Atributos" style="text;html=1;align=center;verticalAlign=middle;whiteSpace=wrap;rounded=0;" parent="WIyWlLk6GJQsqaUBKTNV-1" vertex="1">
          <mxGeometry x="628" y="733" width="67" height="27" as="geometry" />
        </mxCell>
      </root>
    </mxGraphModel>
  </diagram>
</mxfile>
